<ttFont>
    <TTGlyph name=".notdef" xMin="51" yMin="0" xMax="461" yMax="546">
      <contour>
        <pt x="51" y="0" on="1"/>
        <pt x="51" y="546" on="1"/>
        <pt x="461" y="546" on="1"/>
        <pt x="461" y="0" on="1"/>
      </contour>
      <contour>
        <pt x="102" y="51" on="1"/>
        <pt x="410" y="51" on="1"/>
        <pt x="410" y="495" on="1"/>
        <pt x="102" y="495" on="1"/>
      </contour>
    </TTGlyph>
    <TTGlyph name="A" xMin="82" yMin="0" xMax="399" yMax="573">
      <contour>
        <pt x="158" y="502" on="1"/>
        <pt x="158" y="328" on="1"/>
        <pt x="319" y="328" on="1"/>
        <pt x="319" y="502" on="1"/>
      </contour>
      <contour>
        <pt x="399" y="0" on="1"/>
        <pt x="319" y="0" on="1"/>
        <pt x="319" y="256" on="1"/>
        <pt x="158" y="256" on="1"/>
        <pt x="158" y="0" on="1"/>
        <pt x="82" y="0" on="1"/>
        <pt x="82" y="573" on="1"/>
        <pt x="399" y="573" on="1"/>
      </contour>
    </TTGlyph>
    <TTGlyph name="AE" xMin="82" yMin="0" xMax="645" yMax="574">
      <contour>
        <pt x="319" y="0" on="1"/>
        <pt x="319" y="255" on="1"/>
        <pt x="158" y="255" on="1"/>
        <pt x="158" y="0" on="1"/>
        <pt x="82" y="0" on="1"/>
        <pt x="82" y="573" on="1"/>
        <pt x="268" y="573" on="0"/>
        <pt x="645" y="574" on="1"/>
        <pt x="645" y="502" on="1"/>
        <pt x="403" y="502" on="1"/>
        <pt x="403" y="327" on="1"/>
        <pt x="645" y="327" on="1"/>
        <pt x="645" y="255" on="1"/>
        <pt x="403" y="255" on="1"/>
        <pt x="403" y="78" on="1"/>
        <pt x="645" y="78" on="1"/>
        <pt x="645" y="0" on="1"/>
      </contour>
      <contour>
        <pt x="319" y="327" on="1"/>
        <pt x="319" y="502" on="1"/>
        <pt x="158" y="502" on="1"/>
        <pt x="158" y="327" on="1"/>
      </contour>
    </TTGlyph>
    <TTGlyph name="Aacute" xMin="82" yMin="0" xMax="399" yMax="809">
      <contour>
        <pt x="158" y="502" on="1"/>
        <pt x="158" y="328" on="1"/>
        <pt x="319" y="328" on="1"/>
        <pt x="319" y="502" on="1"/>
      </contour>
      <contour>
        <pt x="399" y="0" on="1"/>
        <pt x="319" y="0" on="1"/>
        <pt x="319" y="256" on="1"/>
        <pt x="158" y="256" on="1"/>
        <pt x="158" y="0" on="1"/>
        <pt x="82" y="0" on="1"/>
        <pt x="82" y="573" on="1"/>
        <pt x="399" y="573" on="1"/>
      </contour>
      <contour>
        <pt x="287" y="809" on="1"/>
        <pt x="82" y="676" on="1"/>
        <pt x="137" y="614" on="1"/>
        <pt x="342" y="748" on="1"/>
      </contour>
    </TTGlyph>
    <TTGlyph name="Acircumflex" xMin="82" yMin="0" xMax="399" yMax="803">
      <contour>
        <pt x="158" y="502" on="1"/>
        <pt x="158" y="328" on="1"/>
        <pt x="319" y="328" on="1"/>
        <pt x="319" y="502" on="1"/>
      </contour>
      <contour>
        <pt x="399" y="0" on="1"/>
        <pt x="319" y="0" on="1"/>
        <pt x="319" y="256" on="1"/>
        <pt x="158" y="256" on="1"/>
        <pt x="158" y="0" on="1"/>
        <pt x="82" y="0" on="1"/>
        <pt x="82" y="573" on="1"/>
        <pt x="399" y="573" on="1"/>
      </contour>
      <contour>
        <pt x="225" y="803" on="1"/>
        <pt x="365" y="664" on="1"/>
        <pt x="309" y="610" on="1"/>
        <pt x="225" y="702" on="1"/>
        <pt x="141" y="610" on="1"/>
        <pt x="86" y="664" on="1"/>
      </contour>
    </TTGlyph>
    <TTGlyph name="Adieresis" xMin="82" yMin="0" xMax="399" yMax="758">
      <contour>
        <pt x="158" y="502" on="1"/>
        <pt x="158" y="328" on="1"/>
        <pt x="319" y="328" on="1"/>
        <pt x="319" y="502" on="1"/>
      </contour>
      <contour>
        <pt x="399" y="0" on="1"/>
        <pt x="319" y="0" on="1"/>
        <pt x="319" y="256" on="1"/>
        <pt x="158" y="256" on="1"/>
        <pt x="158" y="0" on="1"/>
        <pt x="82" y="0" on="1"/>
        <pt x="82" y="573" on="1"/>
        <pt x="399" y="573" on="1"/>
      </contour>
      <contour>
        <pt x="82" y="758" on="1"/>
        <pt x="82" y="625" on="1"/>
        <pt x="158" y="625" on="1"/>
        <pt x="158" y="758" on="1"/>
      </contour>
      <contour>
        <pt x="266" y="758" on="1"/>
        <pt x="266" y="625" on="1"/>
        <pt x="342" y="625" on="1"/>
        <pt x="342" y="758" on="1"/>
      </contour>
    </TTGlyph>
    <TTGlyph name="Agrave" xMin="82" yMin="0" xMax="399" yMax="799">
      <contour>
        <pt x="158" y="502" on="1"/>
        <pt x="158" y="328" on="1"/>
        <pt x="319" y="328" on="1"/>
        <pt x="319" y="502" on="1"/>
      </contour>
      <contour>
        <pt x="399" y="0" on="1"/>
        <pt x="319" y="0" on="1"/>
        <pt x="319" y="256" on="1"/>
        <pt x="158" y="256" on="1"/>
        <pt x="158" y="0" on="1"/>
        <pt x="82" y="0" on="1"/>
        <pt x="82" y="573" on="1"/>
        <pt x="399" y="573" on="1"/>
      </contour>
      <contour>
        <pt x="137" y="799" on="1"/>
        <pt x="342" y="666" on="1"/>
        <pt x="287" y="604" on="1"/>
        <pt x="82" y="737" on="1"/>
      </contour>
    </TTGlyph>
    <TTGlyph name="Aring" xMin="82" yMin="0" xMax="399" yMax="821">
      <contour>
        <pt x="158" y="502" on="1"/>
        <pt x="158" y="328" on="1"/>
        <pt x="319" y="328" on="1"/>
        <pt x="319" y="502" on="1"/>
      </contour>
      <contour>
        <pt x="399" y="0" on="1"/>
        <pt x="319" y="0" on="1"/>
        <pt x="319" y="256" on="1"/>
        <pt x="158" y="256" on="1"/>
        <pt x="158" y="0" on="1"/>
        <pt x="82" y="0" on="1"/>
        <pt x="82" y="573" on="1"/>
        <pt x="399" y="573" on="1"/>
      </contour>
      <contour>
        <pt x="84" y="612" on="1"/>
        <pt x="84" y="821" on="1"/>
        <pt x="274" y="821" on="1"/>
        <pt x="274" y="612" on="1"/>
      </contour>
      <contour>
        <pt x="219" y="777" on="1"/>
        <pt x="142" y="776" on="1"/>
        <pt x="142" y="655" on="1"/>
        <pt x="219" y="655" on="1"/>
      </contour>
    </TTGlyph>
    <TTGlyph name="Atilde" xMin="74" yMin="0" xMax="417" yMax="785">
      <contour>
        <pt x="133" y="725" on="1"/>
        <pt x="214" y="725" on="1"/>
        <pt x="214" y="638" on="1"/>
        <pt x="417" y="638" on="1"/>
        <pt x="417" y="785" on="1"/>
        <pt x="354" y="785" on="1"/>
        <pt x="354" y="702" on="1"/>
        <pt x="279" y="702" on="1"/>
        <pt x="279" y="785" on="1"/>
        <pt x="74" y="785" on="1"/>
        <pt x="74" y="638" on="1"/>
        <pt x="133" y="638" on="1"/>
      </contour>
      <contour>
        <pt x="158" y="502" on="1"/>
        <pt x="158" y="328" on="1"/>
        <pt x="319" y="328" on="1"/>
        <pt x="319" y="502" on="1"/>
      </contour>
      <contour>
        <pt x="399" y="0" on="1"/>
        <pt x="319" y="0" on="1"/>
        <pt x="319" y="256" on="1"/>
        <pt x="158" y="256" on="1"/>
        <pt x="158" y="0" on="1"/>
        <pt x="82" y="0" on="1"/>
        <pt x="82" y="573" on="1"/>
        <pt x="399" y="573" on="1"/>
      </contour>
    </TTGlyph>
    <TTGlyph name="B" xMin="82" yMin="0" xMax="399" yMax="573">
      <contour>
        <pt x="158" y="502" on="1"/>
        <pt x="158" y="338" on="1"/>
        <pt x="279" y="338" on="1"/>
        <pt x="279" y="502" on="1"/>
      </contour>
      <contour>
        <pt x="82" y="0" on="1"/>
        <pt x="82" y="573" on="1"/>
        <pt x="358" y="573" on="1"/>
        <pt x="358" y="338" on="1"/>
        <pt x="399" y="338" on="1"/>
        <pt x="399" y="0" on="1"/>
      </contour>
      <contour>
        <pt x="158" y="77" on="1"/>
        <pt x="319" y="77" on="1"/>
        <pt x="319" y="266" on="1"/>
        <pt x="158" y="266" on="1"/>
      </contour>
    </TTGlyph>
    <TTGlyph name="C" xMin="82" yMin="0" xMax="399" yMax="573">
      <contour>
        <pt x="324" y="499" on="1"/>
        <pt x="162" y="499" on="1"/>
        <pt x="162" y="72" on="1"/>
        <pt x="391" y="72" on="1"/>
        <pt x="391" y="0" on="1"/>
        <pt x="82" y="0" on="1"/>
        <pt x="82" y="573" on="1"/>
        <pt x="399" y="573" on="1"/>
        <pt x="399" y="410" on="1"/>
        <pt x="324" y="410" on="1"/>
      </contour>
    </TTGlyph>
    <TTGlyph name="Ccedilla" xMin="82" yMin="-174" xMax="399" yMax="573">
      <contour>
        <pt x="325" y="0" on="1"/>
        <pt x="281" y="-174" on="1"/>
        <pt x="195" y="-174" on="1"/>
        <pt x="247" y="0" on="1"/>
        <pt x="82" y="0" on="1"/>
        <pt x="82" y="573" on="1"/>
        <pt x="399" y="573" on="1"/>
        <pt x="399" y="410" on="1"/>
        <pt x="324" y="410" on="1"/>
        <pt x="324" y="499" on="1"/>
        <pt x="162" y="499" on="1"/>
        <pt x="162" y="72" on="1"/>
        <pt x="391" y="72" on="1"/>
        <pt x="391" y="0" on="1"/>
      </contour>
    </TTGlyph>
    <TTGlyph name="D" xMin="82" yMin="0" xMax="399" yMax="573">
      <contour>
        <pt x="158" y="78" on="1"/>
        <pt x="289" y="78" on="1"/>
        <pt x="309" y="102" on="1"/>
        <pt x="309" y="471" on="1"/>
        <pt x="289" y="501" on="1"/>
        <pt x="158" y="501" on="1"/>
      </contour>
      <contour>
        <pt x="82" y="0" on="1"/>
        <pt x="82" y="573" on="1"/>
        <pt x="307" y="573" on="1"/>
        <pt x="399" y="440" on="1"/>
        <pt x="399" y="123" on="1"/>
        <pt x="297" y="0" on="1"/>
      </contour>
    </TTGlyph>
    <TTGlyph name="E" xMin="82" yMin="0" xMax="399" yMax="574">
      <contour>
        <pt x="399" y="78" on="1"/>
        <pt x="399" y="0" on="1"/>
        <pt x="82" y="0" on="1"/>
        <pt x="82" y="573" on="1"/>
        <pt x="399" y="574" on="1"/>
        <pt x="399" y="502" on="1"/>
        <pt x="158" y="502" on="1"/>
        <pt x="158" y="378" on="1"/>
        <pt x="399" y="378" on="1"/>
        <pt x="399" y="306" on="1"/>
        <pt x="158" y="306" on="1"/>
        <pt x="158" y="78" on="1"/>
      </contour>
    </TTGlyph>
    <TTGlyph name="Eacute" xMin="82" yMin="0" xMax="399" yMax="799">
      <contour>
        <pt x="399" y="78" on="1"/>
        <pt x="399" y="0" on="1"/>
        <pt x="82" y="0" on="1"/>
        <pt x="82" y="573" on="1"/>
        <pt x="399" y="574" on="1"/>
        <pt x="399" y="502" on="1"/>
        <pt x="158" y="502" on="1"/>
        <pt x="158" y="378" on="1"/>
        <pt x="399" y="378" on="1"/>
        <pt x="399" y="306" on="1"/>
        <pt x="158" y="306" on="1"/>
        <pt x="158" y="78" on="1"/>
      </contour>
      <contour>
        <pt x="287" y="799" on="1"/>
        <pt x="82" y="666" on="1"/>
        <pt x="137" y="604" on="1"/>
        <pt x="342" y="737" on="1"/>
      </contour>
    </TTGlyph>
    <TTGlyph name="Ecircumflex" xMin="82" yMin="0" xMax="399" yMax="803">
      <contour>
        <pt x="399" y="78" on="1"/>
        <pt x="399" y="0" on="1"/>
        <pt x="82" y="0" on="1"/>
        <pt x="82" y="573" on="1"/>
        <pt x="399" y="574" on="1"/>
        <pt x="399" y="502" on="1"/>
        <pt x="158" y="502" on="1"/>
        <pt x="158" y="378" on="1"/>
        <pt x="399" y="378" on="1"/>
        <pt x="399" y="306" on="1"/>
        <pt x="158" y="306" on="1"/>
        <pt x="158" y="78" on="1"/>
      </contour>
      <contour>
        <pt x="225" y="803" on="1"/>
        <pt x="365" y="664" on="1"/>
        <pt x="309" y="610" on="1"/>
        <pt x="225" y="702" on="1"/>
        <pt x="141" y="610" on="1"/>
        <pt x="86" y="664" on="1"/>
      </contour>
    </TTGlyph>
    <TTGlyph name="Edieresis" xMin="82" yMin="0" xMax="399" yMax="748">
      <contour>
        <pt x="399" y="78" on="1"/>
        <pt x="399" y="0" on="1"/>
        <pt x="82" y="0" on="1"/>
        <pt x="82" y="573" on="1"/>
        <pt x="399" y="574" on="1"/>
        <pt x="399" y="502" on="1"/>
        <pt x="158" y="502" on="1"/>
        <pt x="158" y="378" on="1"/>
        <pt x="399" y="378" on="1"/>
        <pt x="399" y="306" on="1"/>
        <pt x="158" y="306" on="1"/>
        <pt x="158" y="78" on="1"/>
      </contour>
      <contour>
        <pt x="82" y="748" on="1"/>
        <pt x="82" y="614" on="1"/>
        <pt x="158" y="614" on="1"/>
        <pt x="158" y="748" on="1"/>
      </contour>
      <contour>
        <pt x="266" y="748" on="1"/>
        <pt x="266" y="614" on="1"/>
        <pt x="342" y="614" on="1"/>
        <pt x="342" y="748" on="1"/>
      </contour>
    </TTGlyph>
    <TTGlyph name="Egrave" xMin="82" yMin="0" xMax="399" yMax="788">
      <contour>
        <pt x="399" y="78" on="1"/>
        <pt x="399" y="0" on="1"/>
        <pt x="82" y="0" on="1"/>
        <pt x="82" y="573" on="1"/>
        <pt x="399" y="574" on="1"/>
        <pt x="399" y="502" on="1"/>
        <pt x="158" y="502" on="1"/>
        <pt x="158" y="378" on="1"/>
        <pt x="399" y="378" on="1"/>
        <pt x="399" y="306" on="1"/>
        <pt x="158" y="306" on="1"/>
        <pt x="158" y="78" on="1"/>
      </contour>
      <contour>
        <pt x="137" y="788" on="1"/>
        <pt x="342" y="655" on="1"/>
        <pt x="287" y="594" on="1"/>
        <pt x="82" y="727" on="1"/>
      </contour>
    </TTGlyph>
    <TTGlyph name="F" xMin="82" yMin="0" xMax="399" yMax="574">
      <contour>
        <pt x="158" y="0" on="1"/>
        <pt x="82" y="0" on="1"/>
        <pt x="82" y="573" on="1"/>
        <pt x="399" y="574" on="1"/>
        <pt x="399" y="502" on="1"/>
        <pt x="158" y="502" on="1"/>
        <pt x="158" y="378" on="1"/>
        <pt x="399" y="378" on="1"/>
        <pt x="399" y="306" on="1"/>
        <pt x="158" y="306" on="1"/>
      </contour>
    </TTGlyph>
    <TTGlyph name="G" xMin="82" yMin="0" xMax="399" yMax="573">
      <contour>
        <pt x="225" y="379" on="1"/>
        <pt x="399" y="379" on="1"/>
        <pt x="399" y="0" on="1"/>
        <pt x="82" y="0" on="1"/>
        <pt x="82" y="573" on="1"/>
        <pt x="399" y="573" on="1"/>
        <pt x="399" y="498" on="1"/>
        <pt x="162" y="498" on="1"/>
        <pt x="162" y="72" on="1"/>
        <pt x="323" y="72" on="1"/>
        <pt x="323" y="308" on="1"/>
        <pt x="225" y="308" on="1"/>
      </contour>
    </TTGlyph>
    <TTGlyph name="H" xMin="82" yMin="0" xMax="399" yMax="573">
      <contour>
        <pt x="319" y="379" on="1"/>
        <pt x="158" y="379" on="1"/>
        <pt x="158" y="573" on="1"/>
        <pt x="82" y="573" on="1"/>
        <pt x="82" y="0" on="1"/>
        <pt x="158" y="0" on="1"/>
        <pt x="158" y="307" on="1"/>
        <pt x="319" y="307" on="1"/>
        <pt x="319" y="0" on="1"/>
        <pt x="399" y="0" on="1"/>
        <pt x="399" y="573" on="1"/>
        <pt x="319" y="573" on="1"/>
      </contour>
    </TTGlyph>
    <TTGlyph name="I" xMin="51" yMin="0" xMax="273" yMax="573">
      <contour>
        <pt x="124" y="500" on="1"/>
        <pt x="51" y="500" on="1"/>
        <pt x="51" y="573" on="1"/>
        <pt x="268" y="573" on="1"/>
        <pt x="268" y="500" on="1"/>
        <pt x="200" y="500" on="1"/>
        <pt x="200" y="74" on="1"/>
        <pt x="273" y="74" on="1"/>
        <pt x="273" y="0" on="1"/>
        <pt x="57" y="0" on="1"/>
        <pt x="57" y="74" on="1"/>
        <pt x="124" y="74" on="1"/>
      </contour>
    </TTGlyph>
    <TTGlyph name="Iacute" xMin="20" yMin="0" xMax="281" yMax="799">
      <contour>
        <pt x="124" y="500" on="1"/>
        <pt x="51" y="500" on="1"/>
        <pt x="51" y="573" on="1"/>
        <pt x="268" y="573" on="1"/>
        <pt x="268" y="500" on="1"/>
        <pt x="200" y="500" on="1"/>
        <pt x="200" y="74" on="1"/>
        <pt x="273" y="74" on="1"/>
        <pt x="273" y="0" on="1"/>
        <pt x="57" y="0" on="1"/>
        <pt x="57" y="74" on="1"/>
        <pt x="124" y="74" on="1"/>
      </contour>
      <contour>
        <pt x="225" y="799" on="1"/>
        <pt x="20" y="666" on="1"/>
        <pt x="76" y="604" on="1"/>
        <pt x="281" y="737" on="1"/>
      </contour>
    </TTGlyph>
    <TTGlyph name="Icircumflex" xMin="14" yMin="0" xMax="293" yMax="803">
      <contour>
        <pt x="124" y="500" on="1"/>
        <pt x="51" y="500" on="1"/>
        <pt x="51" y="573" on="1"/>
        <pt x="268" y="573" on="1"/>
        <pt x="268" y="500" on="1"/>
        <pt x="200" y="500" on="1"/>
        <pt x="200" y="74" on="1"/>
        <pt x="273" y="74" on="1"/>
        <pt x="273" y="0" on="1"/>
        <pt x="57" y="0" on="1"/>
        <pt x="57" y="74" on="1"/>
        <pt x="124" y="74" on="1"/>
      </contour>
      <contour>
        <pt x="154" y="803" on="1"/>
        <pt x="293" y="664" on="1"/>
        <pt x="238" y="610" on="1"/>
        <pt x="154" y="702" on="1"/>
        <pt x="70" y="610" on="1"/>
        <pt x="14" y="664" on="1"/>
      </contour>
    </TTGlyph>
    <TTGlyph name="Idieresis" xMin="41" yMin="0" xMax="301" yMax="758">
      <contour>
        <pt x="124" y="500" on="1"/>
        <pt x="51" y="500" on="1"/>
        <pt x="51" y="573" on="1"/>
        <pt x="268" y="573" on="1"/>
        <pt x="268" y="500" on="1"/>
        <pt x="200" y="500" on="1"/>
        <pt x="200" y="74" on="1"/>
        <pt x="273" y="74" on="1"/>
        <pt x="273" y="0" on="1"/>
        <pt x="57" y="0" on="1"/>
        <pt x="57" y="74" on="1"/>
        <pt x="124" y="74" on="1"/>
      </contour>
      <contour>
        <pt x="41" y="758" on="1"/>
        <pt x="41" y="625" on="1"/>
        <pt x="117" y="625" on="1"/>
        <pt x="117" y="758" on="1"/>
      </contour>
      <contour>
        <pt x="225" y="758" on="1"/>
        <pt x="225" y="625" on="1"/>
        <pt x="301" y="625" on="1"/>
        <pt x="301" y="758" on="1"/>
      </contour>
    </TTGlyph>
    <TTGlyph name="Igrave" xMin="20" yMin="0" xMax="281" yMax="799">
      <contour>
        <pt x="124" y="500" on="1"/>
        <pt x="51" y="500" on="1"/>
        <pt x="51" y="573" on="1"/>
        <pt x="268" y="573" on="1"/>
        <pt x="268" y="500" on="1"/>
        <pt x="200" y="500" on="1"/>
        <pt x="200" y="74" on="1"/>
        <pt x="273" y="74" on="1"/>
        <pt x="273" y="0" on="1"/>
        <pt x="57" y="0" on="1"/>
        <pt x="57" y="74" on="1"/>
        <pt x="124" y="74" on="1"/>
      </contour>
      <contour>
        <pt x="76" y="799" on="1"/>
        <pt x="281" y="666" on="1"/>
        <pt x="225" y="604" on="1"/>
        <pt x="20" y="737" on="1"/>
      </contour>
    </TTGlyph>
    <TTGlyph name="J" xMin="0" yMin="-154" xMax="179" yMax="573">
      <contour>
        <pt x="102" y="573" on="1"/>
        <pt x="179" y="573" on="1"/>
        <pt x="179" y="-154" on="1"/>
        <pt x="0" y="-154" on="1"/>
        <pt x="0" y="-80" on="1"/>
        <pt x="102" y="-80" on="1"/>
      </contour>
    </TTGlyph>
    <TTGlyph name="K" xMin="82" yMin="0" xMax="430" yMax="573">
      <contour>
        <pt x="430" y="0" on="1"/>
        <pt x="230" y="302" on="1"/>
        <pt x="420" y="573" on="1"/>
        <pt x="311" y="573" on="1"/>
        <pt x="158" y="328" on="1"/>
        <pt x="158" y="573" on="1"/>
        <pt x="82" y="573" on="1"/>
        <pt x="82" y="0" on="1"/>
        <pt x="158" y="0" on="1"/>
        <pt x="158" y="256" on="1"/>
        <pt x="173" y="256" on="1"/>
        <pt x="312" y="0" on="1"/>
      </contour>
    </TTGlyph>
    <TTGlyph name="L" xMin="82" yMin="0" xMax="399" yMax="574">
      <contour>
        <pt x="158" y="78" on="1"/>
        <pt x="399" y="78" on="1"/>
        <pt x="399" y="0" on="1"/>
        <pt x="82" y="0" on="1"/>
        <pt x="82" y="573" on="1"/>
        <pt x="158" y="574" on="1"/>
      </contour>
    </TTGlyph>
    <TTGlyph name="M" xMin="82" yMin="0" xMax="635" yMax="573">
      <contour>
        <pt x="399" y="0" on="1"/>
        <pt x="317" y="0" on="1"/>
        <pt x="317" y="502" on="1"/>
        <pt x="158" y="502" on="1"/>
        <pt x="158" y="0" on="1"/>
        <pt x="82" y="0" on="1"/>
        <pt x="82" y="573" on="1"/>
        <pt x="635" y="573" on="1"/>
        <pt x="635" y="0" on="1"/>
        <pt x="555" y="0" on="1"/>
        <pt x="555" y="502" on="1"/>
        <pt x="399" y="502" on="1"/>
      </contour>
    </TTGlyph>
    <TTGlyph name="N" xMin="82" yMin="0" xMax="399" yMax="574">
      <contour>
        <pt x="155" y="574" on="1"/>
        <pt x="82" y="573" on="1"/>
        <pt x="82" y="0" on="1"/>
        <pt x="158" y="0" on="1"/>
        <pt x="158" y="358" on="1"/>
        <pt x="339" y="0" on="1"/>
        <pt x="399" y="0" on="1"/>
        <pt x="399" y="573" on="1"/>
        <pt x="319" y="573" on="1"/>
        <pt x="319" y="256" on="1"/>
      </contour>
    </TTGlyph>
    <TTGlyph name="Ntilde" xMin="74" yMin="0" xMax="417" yMax="785">
      <contour>
        <pt x="133" y="725" on="1"/>
        <pt x="214" y="725" on="1"/>
        <pt x="214" y="638" on="1"/>
        <pt x="417" y="638" on="1"/>
        <pt x="417" y="785" on="1"/>
        <pt x="354" y="785" on="1"/>
        <pt x="354" y="702" on="1"/>
        <pt x="279" y="702" on="1"/>
        <pt x="279" y="785" on="1"/>
        <pt x="74" y="785" on="1"/>
        <pt x="74" y="638" on="1"/>
        <pt x="133" y="638" on="1"/>
      </contour>
      <contour>
        <pt x="155" y="574" on="1"/>
        <pt x="82" y="573" on="1"/>
        <pt x="82" y="0" on="1"/>
        <pt x="158" y="0" on="1"/>
        <pt x="158" y="358" on="1"/>
        <pt x="339" y="0" on="1"/>
        <pt x="399" y="0" on="1"/>
        <pt x="399" y="573" on="1"/>
        <pt x="319" y="573" on="1"/>
        <pt x="319" y="256" on="1"/>
      </contour>
    </TTGlyph>
    <TTGlyph name="O" xMin="82" yMin="0" xMax="399" yMax="573">
      <contour>
        <pt x="158" y="78" on="1"/>
        <pt x="319" y="78" on="1"/>
        <pt x="319" y="501" on="1"/>
        <pt x="158" y="501" on="1"/>
      </contour>
      <contour>
        <pt x="82" y="0" on="1"/>
        <pt x="82" y="573" on="1"/>
        <pt x="399" y="573" on="1"/>
        <pt x="399" y="0" on="1"/>
      </contour>
    </TTGlyph>
    <TTGlyph name="OE" xMin="82" yMin="0" xMax="640" yMax="574">
      <contour>
        <pt x="158" y="78" on="1"/>
        <pt x="319" y="78" on="1"/>
        <pt x="319" y="501" on="1"/>
        <pt x="158" y="501" on="1"/>
      </contour>
      <contour>
        <pt x="640" y="78" on="1"/>
        <pt x="640" y="0" on="1"/>
        <pt x="82" y="0" on="1"/>
        <pt x="82" y="573" on="1"/>
        <pt x="263" y="573" on="0"/>
        <pt x="640" y="574" on="1"/>
        <pt x="640" y="502" on="1"/>
        <pt x="399" y="502" on="1"/>
        <pt x="399" y="378" on="1"/>
        <pt x="640" y="378" on="1"/>
        <pt x="640" y="306" on="1"/>
        <pt x="399" y="306" on="1"/>
        <pt x="399" y="78" on="1"/>
      </contour>
    </TTGlyph>
    <TTGlyph name="Oacute" xMin="82" yMin="0" xMax="399" yMax="799">
      <contour>
        <pt x="158" y="78" on="1"/>
        <pt x="319" y="78" on="1"/>
        <pt x="319" y="501" on="1"/>
        <pt x="158" y="501" on="1"/>
      </contour>
      <contour>
        <pt x="82" y="0" on="1"/>
        <pt x="82" y="573" on="1"/>
        <pt x="399" y="573" on="1"/>
        <pt x="399" y="0" on="1"/>
      </contour>
      <contour>
        <pt x="287" y="799" on="1"/>
        <pt x="82" y="666" on="1"/>
        <pt x="137" y="604" on="1"/>
        <pt x="342" y="737" on="1"/>
      </contour>
    </TTGlyph>
    <TTGlyph name="Ocircumflex" xMin="82" yMin="0" xMax="399" yMax="803">
      <contour>
        <pt x="158" y="78" on="1"/>
        <pt x="319" y="78" on="1"/>
        <pt x="319" y="501" on="1"/>
        <pt x="158" y="501" on="1"/>
      </contour>
      <contour>
        <pt x="82" y="0" on="1"/>
        <pt x="82" y="573" on="1"/>
        <pt x="399" y="573" on="1"/>
        <pt x="399" y="0" on="1"/>
      </contour>
      <contour>
        <pt x="225" y="803" on="1"/>
        <pt x="365" y="664" on="1"/>
        <pt x="309" y="610" on="1"/>
        <pt x="225" y="702" on="1"/>
        <pt x="141" y="610" on="1"/>
        <pt x="86" y="664" on="1"/>
      </contour>
    </TTGlyph>
    <TTGlyph name="Odieresis" xMin="82" yMin="0" xMax="399" yMax="573">
      <contour>
        <pt x="158" y="78" on="1"/>
        <pt x="319" y="78" on="1"/>
        <pt x="319" y="501" on="1"/>
        <pt x="158" y="501" on="1"/>
      </contour>
      <contour>
        <pt x="82" y="0" on="1"/>
        <pt x="82" y="573" on="1"/>
        <pt x="399" y="573" on="1"/>
        <pt x="399" y="0" on="1"/>
      </contour>
    </TTGlyph>
    <TTGlyph name="Ograve" xMin="82" yMin="0" xMax="399" yMax="788">
      <contour>
        <pt x="158" y="78" on="1"/>
        <pt x="319" y="78" on="1"/>
        <pt x="319" y="501" on="1"/>
        <pt x="158" y="501" on="1"/>
      </contour>
      <contour>
        <pt x="82" y="0" on="1"/>
        <pt x="82" y="573" on="1"/>
        <pt x="399" y="573" on="1"/>
        <pt x="399" y="0" on="1"/>
      </contour>
      <contour>
        <pt x="137" y="788" on="1"/>
        <pt x="342" y="655" on="1"/>
        <pt x="287" y="594" on="1"/>
        <pt x="82" y="727" on="1"/>
      </contour>
    </TTGlyph>
    <TTGlyph name="Oslash" xMin="82" yMin="-51" xMax="399" yMax="645">
      <contour>
        <pt x="259" y="501" on="1"/>
        <pt x="158" y="501" on="1"/>
        <pt x="158" y="119" on="1"/>
      </contour>
      <contour>
        <pt x="222" y="78" on="1"/>
        <pt x="319" y="78" on="1"/>
        <pt x="319" y="444" on="1"/>
      </contour>
      <contour>
        <pt x="82" y="0" on="1"/>
        <pt x="82" y="573" on="1"/>
        <pt x="278" y="573" on="1"/>
        <pt x="297" y="645" on="1"/>
        <pt x="373" y="645" on="1"/>
        <pt x="353" y="573" on="1"/>
        <pt x="399" y="573" on="1"/>
        <pt x="399" y="0" on="1"/>
        <pt x="202" y="0" on="1"/>
        <pt x="188" y="-51" on="1"/>
        <pt x="113" y="-51" on="1"/>
        <pt x="126" y="0" on="1"/>
      </contour>
    </TTGlyph>
    <TTGlyph name="Otilde" xMin="74" yMin="0" xMax="417" yMax="785">
      <contour>
        <pt x="133" y="725" on="1"/>
        <pt x="214" y="725" on="1"/>
        <pt x="214" y="638" on="1"/>
        <pt x="417" y="638" on="1"/>
        <pt x="417" y="785" on="1"/>
        <pt x="354" y="785" on="1"/>
        <pt x="354" y="702" on="1"/>
        <pt x="279" y="702" on="1"/>
        <pt x="279" y="785" on="1"/>
        <pt x="74" y="785" on="1"/>
        <pt x="74" y="638" on="1"/>
        <pt x="133" y="638" on="1"/>
      </contour>
      <contour>
        <pt x="158" y="78" on="1"/>
        <pt x="319" y="78" on="1"/>
        <pt x="319" y="501" on="1"/>
        <pt x="158" y="501" on="1"/>
      </contour>
      <contour>
        <pt x="82" y="0" on="1"/>
        <pt x="82" y="573" on="1"/>
        <pt x="399" y="573" on="1"/>
        <pt x="399" y="0" on="1"/>
      </contour>
    </TTGlyph>
    <TTGlyph name="P" xMin="82" yMin="0" xMax="379" yMax="573">
      <contour>
        <pt x="379" y="256" on="1"/>
        <pt x="158" y="256" on="1"/>
        <pt x="159" y="0" on="1"/>
        <pt x="82" y="0" on="1"/>
        <pt x="82" y="573" on="1"/>
        <pt x="379" y="573" on="1"/>
      </contour>
      <contour>
        <pt x="299" y="328" on="1"/>
        <pt x="299" y="502" on="1"/>
        <pt x="158" y="502" on="1"/>
        <pt x="158" y="328" on="1"/>
      </contour>
    </TTGlyph>
    <TTGlyph name="Q" xMin="82" yMin="-154" xMax="399" yMax="573">
      <contour>
        <pt x="322" y="-154" on="1"/>
        <pt x="246" y="-154" on="1"/>
        <pt x="246" y="0" on="1"/>
        <pt x="82" y="0" on="1"/>
        <pt x="82" y="573" on="1"/>
        <pt x="399" y="573" on="1"/>
        <pt x="399" y="0" on="1"/>
        <pt x="322" y="0" on="1"/>
      </contour>
      <contour>
        <pt x="319" y="78" on="1"/>
        <pt x="319" y="502" on="1"/>
        <pt x="158" y="501" on="1"/>
        <pt x="158" y="78" on="1"/>
      </contour>
    </TTGlyph>
    <TTGlyph name="R" xMin="82" yMin="0" xMax="430" yMax="573">
      <contour>
        <pt x="430" y="0" on="1"/>
        <pt x="330" y="0" on="1"/>
        <pt x="190" y="256" on="1"/>
        <pt x="158" y="256" on="1"/>
        <pt x="159" y="0" on="1"/>
        <pt x="82" y="0" on="1"/>
        <pt x="82" y="573" on="1"/>
        <pt x="379" y="573" on="1"/>
        <pt x="379" y="256" on="1"/>
        <pt x="291" y="256" on="1"/>
      </contour>
      <contour>
        <pt x="299" y="328" on="1"/>
        <pt x="299" y="502" on="1"/>
        <pt x="158" y="502" on="1"/>
        <pt x="158" y="328" on="1"/>
      </contour>
    </TTGlyph>
    <TTGlyph name="S" xMin="82" yMin="0" xMax="399" yMax="573">
      <contour>
        <pt x="158" y="75" on="1"/>
        <pt x="158" y="164" on="1"/>
        <pt x="82" y="164" on="1"/>
        <pt x="82" y="0" on="1"/>
        <pt x="397" y="1" on="1"/>
        <pt x="397" y="243" on="1"/>
        <pt x="162" y="379" on="1"/>
        <pt x="162" y="499" on="1"/>
        <pt x="324" y="499" on="1"/>
        <pt x="324" y="410" on="1"/>
        <pt x="399" y="410" on="1"/>
        <pt x="399" y="573" on="1"/>
        <pt x="82" y="573" on="1"/>
        <pt x="82" y="307" on="1"/>
        <pt x="319" y="170" on="1"/>
        <pt x="319" y="75" on="1"/>
      </contour>
    </TTGlyph>
    <TTGlyph name="Scaron" xMin="82" yMin="0" xMax="399" yMax="803">
      <contour>
        <pt x="158" y="75" on="1"/>
        <pt x="158" y="164" on="1"/>
        <pt x="82" y="164" on="1"/>
        <pt x="82" y="0" on="1"/>
        <pt x="397" y="1" on="1"/>
        <pt x="397" y="243" on="1"/>
        <pt x="162" y="379" on="1"/>
        <pt x="162" y="499" on="1"/>
        <pt x="324" y="499" on="1"/>
        <pt x="324" y="410" on="1"/>
        <pt x="399" y="410" on="1"/>
        <pt x="399" y="573" on="1"/>
        <pt x="82" y="573" on="1"/>
        <pt x="82" y="307" on="1"/>
        <pt x="319" y="170" on="1"/>
        <pt x="319" y="75" on="1"/>
      </contour>
      <contour>
        <pt x="225" y="610" on="1"/>
        <pt x="86" y="750" on="1"/>
        <pt x="141" y="803" on="1"/>
        <pt x="225" y="711" on="1"/>
        <pt x="309" y="803" on="1"/>
        <pt x="365" y="750" on="1"/>
      </contour>
    </TTGlyph>
    <TTGlyph name="T" xMin="81" yMin="0" xMax="399" yMax="573">
      <contour>
        <pt x="281" y="0" on="1"/>
        <pt x="205" y="0" on="1"/>
        <pt x="205" y="500" on="1"/>
        <pt x="81" y="500" on="1"/>
        <pt x="81" y="573" on="1"/>
        <pt x="399" y="573" on="1"/>
        <pt x="399" y="500" on="1"/>
        <pt x="281" y="500" on="1"/>
      </contour>
    </TTGlyph>
    <TTGlyph name="U" xMin="82" yMin="0" xMax="399" yMax="573">
      <contour>
        <pt x="399" y="573" on="1"/>
        <pt x="399" y="0" on="1"/>
        <pt x="82" y="0" on="1"/>
        <pt x="82" y="573" on="1"/>
        <pt x="158" y="573" on="1"/>
        <pt x="158" y="72" on="1"/>
        <pt x="319" y="72" on="1"/>
        <pt x="319" y="573" on="1"/>
      </contour>
    </TTGlyph>
    <TTGlyph name="Uacute" xMin="82" yMin="0" xMax="399" yMax="799">
      <contour>
        <pt x="399" y="573" on="1"/>
        <pt x="399" y="0" on="1"/>
        <pt x="82" y="0" on="1"/>
        <pt x="82" y="573" on="1"/>
        <pt x="158" y="573" on="1"/>
        <pt x="158" y="72" on="1"/>
        <pt x="319" y="72" on="1"/>
        <pt x="319" y="573" on="1"/>
      </contour>
      <contour>
        <pt x="287" y="799" on="1"/>
        <pt x="82" y="666" on="1"/>
        <pt x="137" y="604" on="1"/>
        <pt x="342" y="737" on="1"/>
      </contour>
    </TTGlyph>
    <TTGlyph name="Ucircumflex" xMin="82" yMin="0" xMax="399" yMax="803">
      <contour>
        <pt x="399" y="573" on="1"/>
        <pt x="399" y="0" on="1"/>
        <pt x="82" y="0" on="1"/>
        <pt x="82" y="573" on="1"/>
        <pt x="158" y="573" on="1"/>
        <pt x="158" y="72" on="1"/>
        <pt x="319" y="72" on="1"/>
        <pt x="319" y="573" on="1"/>
      </contour>
      <contour>
        <pt x="225" y="803" on="1"/>
        <pt x="365" y="664" on="1"/>
        <pt x="309" y="610" on="1"/>
        <pt x="225" y="702" on="1"/>
        <pt x="141" y="610" on="1"/>
        <pt x="86" y="664" on="1"/>
      </contour>
    </TTGlyph>
    <TTGlyph name="Udieresis" xMin="82" yMin="0" xMax="399" yMax="573">
      <contour>
        <pt x="399" y="573" on="1"/>
        <pt x="399" y="0" on="1"/>
        <pt x="82" y="0" on="1"/>
        <pt x="82" y="573" on="1"/>
        <pt x="158" y="573" on="1"/>
        <pt x="158" y="72" on="1"/>
        <pt x="319" y="72" on="1"/>
        <pt x="319" y="573" on="1"/>
      </contour>
    </TTGlyph>
    <TTGlyph name="Ugrave" xMin="82" yMin="0" xMax="399" yMax="799">
      <contour>
        <pt x="399" y="573" on="1"/>
        <pt x="399" y="0" on="1"/>
        <pt x="82" y="0" on="1"/>
        <pt x="82" y="573" on="1"/>
        <pt x="158" y="573" on="1"/>
        <pt x="158" y="72" on="1"/>
        <pt x="319" y="72" on="1"/>
        <pt x="319" y="573" on="1"/>
      </contour>
      <contour>
        <pt x="137" y="799" on="1"/>
        <pt x="342" y="666" on="1"/>
        <pt x="287" y="604" on="1"/>
        <pt x="82" y="737" on="1"/>
      </contour>
    </TTGlyph>
    <TTGlyph name="V" xMin="41" yMin="0" xMax="410" yMax="573">
      <contour>
        <pt x="410" y="573" on="1"/>
        <pt x="307" y="0" on="1"/>
        <pt x="143" y="0" on="1"/>
        <pt x="41" y="573" on="1"/>
        <pt x="137" y="573" on="1"/>
        <pt x="209" y="82" on="1"/>
        <pt x="238" y="82" on="1"/>
        <pt x="309" y="573" on="1"/>
      </contour>
    </TTGlyph>
    <TTGlyph name="W" xMin="82" yMin="0" xMax="635" yMax="573">
      <contour>
        <pt x="317" y="573" on="1"/>
        <pt x="399" y="573" on="1"/>
        <pt x="399" y="72" on="1"/>
        <pt x="559" y="72" on="1"/>
        <pt x="559" y="573" on="1"/>
        <pt x="635" y="573" on="1"/>
        <pt x="635" y="0" on="1"/>
        <pt x="82" y="0" on="1"/>
        <pt x="82" y="573" on="1"/>
        <pt x="162" y="573" on="1"/>
        <pt x="162" y="72" on="1"/>
        <pt x="317" y="72" on="1"/>
      </contour>
    </TTGlyph>
    <TTGlyph name="X" xMin="31" yMin="0" xMax="451" yMax="573">
      <contour>
        <pt x="451" y="0" on="1"/>
        <pt x="340" y="0" on="1"/>
        <pt x="248" y="256" on="1"/>
        <pt x="229" y="256" on="1"/>
        <pt x="137" y="0" on="1"/>
        <pt x="31" y="0" on="1"/>
        <pt x="150" y="307" on="1"/>
        <pt x="41" y="573" on="1"/>
        <pt x="147" y="573" on="1"/>
        <pt x="229" y="328" on="1"/>
        <pt x="248" y="328" on="1"/>
        <pt x="330" y="573" on="1"/>
        <pt x="440" y="573" on="1"/>
        <pt x="332" y="307" on="1"/>
      </contour>
    </TTGlyph>
    <TTGlyph name="Y" xMin="82" yMin="0" xMax="399" yMax="573">
      <contour>
        <pt x="399" y="573" on="1"/>
        <pt x="399" y="0" on="1"/>
        <pt x="82" y="0" on="1"/>
        <pt x="82" y="72" on="1"/>
        <pt x="319" y="72" on="1"/>
        <pt x="319" y="184" on="1"/>
        <pt x="84" y="184" on="1"/>
        <pt x="84" y="573" on="1"/>
        <pt x="158" y="573" on="1"/>
        <pt x="158" y="258" on="1"/>
        <pt x="319" y="258" on="1"/>
        <pt x="319" y="573" on="1"/>
      </contour>
    </TTGlyph>
    <TTGlyph name="Yacute" xMin="82" yMin="0" xMax="399" yMax="799">
      <contour>
        <pt x="399" y="573" on="1"/>
        <pt x="399" y="0" on="1"/>
        <pt x="82" y="0" on="1"/>
        <pt x="82" y="72" on="1"/>
        <pt x="319" y="72" on="1"/>
        <pt x="319" y="184" on="1"/>
        <pt x="84" y="184" on="1"/>
        <pt x="84" y="573" on="1"/>
        <pt x="158" y="573" on="1"/>
        <pt x="158" y="258" on="1"/>
        <pt x="319" y="258" on="1"/>
        <pt x="319" y="573" on="1"/>
      </contour>
      <contour>
        <pt x="287" y="799" on="1"/>
        <pt x="82" y="666" on="1"/>
        <pt x="137" y="604" on="1"/>
        <pt x="342" y="737" on="1"/>
      </contour>
    </TTGlyph>
    <TTGlyph name="Ydieresis" xMin="82" yMin="0" xMax="399" yMax="748">
      <contour>
        <pt x="399" y="573" on="1"/>
        <pt x="399" y="0" on="1"/>
        <pt x="82" y="0" on="1"/>
        <pt x="82" y="72" on="1"/>
        <pt x="319" y="72" on="1"/>
        <pt x="319" y="184" on="1"/>
        <pt x="84" y="184" on="1"/>
        <pt x="84" y="573" on="1"/>
        <pt x="158" y="573" on="1"/>
        <pt x="158" y="258" on="1"/>
        <pt x="319" y="258" on="1"/>
        <pt x="319" y="573" on="1"/>
      </contour>
      <contour>
        <pt x="82" y="748" on="1"/>
        <pt x="82" y="614" on="1"/>
        <pt x="158" y="614" on="1"/>
        <pt x="158" y="748" on="1"/>
      </contour>
      <contour>
        <pt x="266" y="748" on="1"/>
        <pt x="266" y="614" on="1"/>
        <pt x="342" y="614" on="1"/>
        <pt x="342" y="748" on="1"/>
      </contour>
    </TTGlyph>
    <TTGlyph name="Z" xMin="82" yMin="0" xMax="399" yMax="573">
      <contour>
        <pt x="182" y="72" on="1"/>
        <pt x="391" y="72" on="1"/>
        <pt x="391" y="0" on="1"/>
        <pt x="82" y="0" on="1"/>
        <pt x="82" y="72" on="1"/>
        <pt x="319" y="499" on="1"/>
        <pt x="82" y="499" on="1"/>
        <pt x="82" y="573" on="1"/>
        <pt x="399" y="573" on="1"/>
        <pt x="399" y="496" on="1"/>
      </contour>
    </TTGlyph>
    <TTGlyph name="Zcaron" xMin="82" yMin="0" xMax="399" yMax="793">
      <contour>
        <pt x="182" y="72" on="1"/>
        <pt x="391" y="72" on="1"/>
        <pt x="391" y="0" on="1"/>
        <pt x="82" y="0" on="1"/>
        <pt x="82" y="72" on="1"/>
        <pt x="319" y="499" on="1"/>
        <pt x="82" y="499" on="1"/>
        <pt x="82" y="573" on="1"/>
        <pt x="399" y="573" on="1"/>
        <pt x="399" y="496" on="1"/>
      </contour>
      <contour>
        <pt x="225" y="600" on="1"/>
        <pt x="86" y="739" on="1"/>
        <pt x="141" y="793" on="1"/>
        <pt x="225" y="700" on="1"/>
        <pt x="309" y="793" on="1"/>
        <pt x="365" y="739" on="1"/>
      </contour>
    </TTGlyph>
    <TTGlyph name="a" xMin="82" yMin="0" xMax="399" yMax="451">
      <contour>
        <pt x="319" y="266" on="1"/>
        <pt x="319" y="379" on="1"/>
        <pt x="82" y="379" on="1"/>
        <pt x="82" y="451" on="1"/>
        <pt x="399" y="451" on="1"/>
        <pt x="399" y="0" on="1"/>
        <pt x="84" y="0" on="1"/>
        <pt x="84" y="266" on="1"/>
      </contour>
      <contour>
        <pt x="319" y="193" on="1"/>
        <pt x="158" y="193" on="1"/>
        <pt x="158" y="74" on="1"/>
        <pt x="319" y="74" on="1"/>
      </contour>
    </TTGlyph>
    <TTGlyph name="aacute" xMin="82" yMin="0" xMax="399" yMax="676">
      <contour>
        <pt x="319" y="266" on="1"/>
        <pt x="319" y="379" on="1"/>
        <pt x="82" y="379" on="1"/>
        <pt x="82" y="451" on="1"/>
        <pt x="399" y="451" on="1"/>
        <pt x="399" y="0" on="1"/>
        <pt x="84" y="0" on="1"/>
        <pt x="84" y="266" on="1"/>
      </contour>
      <contour>
        <pt x="319" y="193" on="1"/>
        <pt x="158" y="193" on="1"/>
        <pt x="158" y="74" on="1"/>
        <pt x="319" y="74" on="1"/>
      </contour>
      <contour>
        <pt x="287" y="676" on="1"/>
        <pt x="82" y="543" on="1"/>
        <pt x="137" y="481" on="1"/>
        <pt x="342" y="614" on="1"/>
      </contour>
    </TTGlyph>
    <TTGlyph name="acircumflex" xMin="82" yMin="0" xMax="399" yMax="680">
      <contour>
        <pt x="319" y="266" on="1"/>
        <pt x="319" y="379" on="1"/>
        <pt x="82" y="379" on="1"/>
        <pt x="82" y="451" on="1"/>
        <pt x="399" y="451" on="1"/>
        <pt x="399" y="0" on="1"/>
        <pt x="84" y="0" on="1"/>
        <pt x="84" y="266" on="1"/>
      </contour>
      <contour>
        <pt x="319" y="193" on="1"/>
        <pt x="158" y="193" on="1"/>
        <pt x="158" y="74" on="1"/>
        <pt x="319" y="74" on="1"/>
      </contour>
      <contour>
        <pt x="225" y="680" on="1"/>
        <pt x="365" y="541" on="1"/>
        <pt x="309" y="487" on="1"/>
        <pt x="225" y="580" on="1"/>
        <pt x="141" y="487" on="1"/>
        <pt x="86" y="541" on="1"/>
      </contour>
    </TTGlyph>
    <TTGlyph name="acute" xMin="82" yMin="481" xMax="342" yMax="676">
      <contour>
        <pt x="287" y="676" on="1"/>
        <pt x="82" y="543" on="1"/>
        <pt x="137" y="481" on="1"/>
        <pt x="342" y="614" on="1"/>
      </contour>
    </TTGlyph>
    <TTGlyph name="adieresis" xMin="82" yMin="0" xMax="399" yMax="676">
      <contour>
        <pt x="319" y="266" on="1"/>
        <pt x="319" y="379" on="1"/>
        <pt x="82" y="379" on="1"/>
        <pt x="82" y="451" on="1"/>
        <pt x="399" y="451" on="1"/>
        <pt x="399" y="0" on="1"/>
        <pt x="84" y="0" on="1"/>
        <pt x="84" y="266" on="1"/>
      </contour>
      <contour>
        <pt x="319" y="193" on="1"/>
        <pt x="158" y="193" on="1"/>
        <pt x="158" y="74" on="1"/>
        <pt x="319" y="74" on="1"/>
      </contour>
      <contour>
        <pt x="82" y="676" on="1"/>
        <pt x="82" y="543" on="1"/>
        <pt x="158" y="543" on="1"/>
        <pt x="158" y="676" on="1"/>
      </contour>
      <contour>
        <pt x="266" y="676" on="1"/>
        <pt x="266" y="543" on="1"/>
        <pt x="342" y="543" on="1"/>
        <pt x="342" y="676" on="1"/>
      </contour>
    </TTGlyph>
    <TTGlyph name="ae" xMin="82" yMin="0" xMax="645" yMax="451">
      <contour>
        <pt x="84" y="287" on="1"/>
        <pt x="319" y="287" on="1"/>
        <pt x="319" y="379" on="1"/>
        <pt x="82" y="379" on="1"/>
        <pt x="82" y="451" on="1"/>
        <pt x="643" y="451" on="1"/>
        <pt x="643" y="164" on="1"/>
        <pt x="408" y="164" on="1"/>
        <pt x="408" y="72" on="1"/>
        <pt x="645" y="72" on="1"/>
        <pt x="645" y="0" on="1"/>
        <pt x="84" y="0" on="1"/>
      </contour>
      <contour>
        <pt x="569" y="238" on="1"/>
        <pt x="569" y="377" on="1"/>
        <pt x="408" y="377" on="1"/>
        <pt x="408" y="238" on="1"/>
      </contour>
      <contour>
        <pt x="319" y="74" on="1"/>
        <pt x="319" y="213" on="1"/>
        <pt x="158" y="213" on="1"/>
        <pt x="158" y="74" on="1"/>
      </contour>
    </TTGlyph>
    <TTGlyph name="agrave" xMin="82" yMin="0" xMax="399" yMax="676">
      <contour>
        <pt x="319" y="266" on="1"/>
        <pt x="319" y="379" on="1"/>
        <pt x="82" y="379" on="1"/>
        <pt x="82" y="451" on="1"/>
        <pt x="399" y="451" on="1"/>
        <pt x="399" y="0" on="1"/>
        <pt x="84" y="0" on="1"/>
        <pt x="84" y="266" on="1"/>
      </contour>
      <contour>
        <pt x="319" y="193" on="1"/>
        <pt x="158" y="193" on="1"/>
        <pt x="158" y="74" on="1"/>
        <pt x="319" y="74" on="1"/>
      </contour>
      <contour>
        <pt x="137" y="676" on="1"/>
        <pt x="342" y="543" on="1"/>
        <pt x="287" y="481" on="1"/>
        <pt x="82" y="614" on="1"/>
      </contour>
    </TTGlyph>
    <TTGlyph name="ampersand" xMin="82" yMin="0" xMax="430" yMax="573">
      <contour>
        <pt x="379" y="410" on="1"/>
        <pt x="379" y="328" on="1"/>
        <pt x="430" y="328" on="1"/>
        <pt x="430" y="257" on="1"/>
        <pt x="379" y="257" on="1"/>
        <pt x="379" y="0" on="1"/>
        <pt x="82" y="0" on="1"/>
        <pt x="82" y="328" on="1"/>
        <pt x="154" y="328" on="1"/>
        <pt x="154" y="573" on="1"/>
        <pt x="324" y="573" on="1"/>
        <pt x="324" y="502" on="1"/>
        <pt x="233" y="502" on="1"/>
        <pt x="233" y="328" on="1"/>
        <pt x="303" y="328" on="1"/>
        <pt x="303" y="410" on="1"/>
      </contour>
      <contour>
        <pt x="303" y="77" on="1"/>
        <pt x="303" y="256" on="1"/>
        <pt x="162" y="256" on="1"/>
        <pt x="162" y="77" on="1"/>
      </contour>
    </TTGlyph>
    <TTGlyph name="aring" xMin="82" yMin="0" xMax="399" yMax="729">
      <contour>
        <pt x="319" y="266" on="1"/>
        <pt x="319" y="379" on="1"/>
        <pt x="82" y="379" on="1"/>
        <pt x="82" y="451" on="1"/>
        <pt x="399" y="451" on="1"/>
        <pt x="399" y="0" on="1"/>
        <pt x="84" y="0" on="1"/>
        <pt x="84" y="266" on="1"/>
      </contour>
      <contour>
        <pt x="319" y="193" on="1"/>
        <pt x="158" y="193" on="1"/>
        <pt x="158" y="74" on="1"/>
        <pt x="319" y="74" on="1"/>
      </contour>
      <contour>
        <pt x="84" y="520" on="1"/>
        <pt x="84" y="729" on="1"/>
        <pt x="274" y="729" on="1"/>
        <pt x="274" y="520" on="1"/>
      </contour>
      <contour>
        <pt x="219" y="685" on="1"/>
        <pt x="142" y="684" on="1"/>
        <pt x="142" y="563" on="1"/>
        <pt x="219" y="563" on="1"/>
      </contour>
    </TTGlyph>
    <TTGlyph name="asciicircum" xMin="86" yMin="487" xMax="365" yMax="680">
      <contour>
        <pt x="225" y="680" on="1"/>
        <pt x="365" y="541" on="1"/>
        <pt x="309" y="487" on="1"/>
        <pt x="225" y="580" on="1"/>
        <pt x="141" y="487" on="1"/>
        <pt x="86" y="541" on="1"/>
      </contour>
    </TTGlyph>
    <TTGlyph name="asciitilde" xMin="41" yMin="210" xMax="470" yMax="394">
      <contour>
        <pt x="116" y="318" on="1"/>
        <pt x="216" y="318" on="1"/>
        <pt x="216" y="210" on="1"/>
        <pt x="470" y="210" on="1"/>
        <pt x="470" y="394" on="1"/>
        <pt x="392" y="394" on="1"/>
        <pt x="392" y="291" on="1"/>
        <pt x="297" y="291" on="1"/>
        <pt x="297" y="394" on="1"/>
        <pt x="41" y="394" on="1"/>
        <pt x="41" y="210" on="1"/>
        <pt x="116" y="210" on="1"/>
      </contour>
    </TTGlyph>
    <TTGlyph name="asterisk" xMin="5" yMin="256" xMax="312" yMax="614">
      <contour>
        <pt x="118" y="256" on="1"/>
        <pt x="118" y="369" on="1"/>
        <pt x="46" y="317" on="1"/>
        <pt x="5" y="389" on="1"/>
        <pt x="87" y="427" on="1"/>
        <pt x="5" y="481" on="1"/>
        <pt x="46" y="543" on="1"/>
        <pt x="118" y="502" on="1"/>
        <pt x="118" y="614" on="1"/>
        <pt x="189" y="614" on="1"/>
        <pt x="189" y="502" on="1"/>
        <pt x="261" y="543" on="1"/>
        <pt x="312" y="478" on="1"/>
        <pt x="230" y="427" on="1"/>
        <pt x="312" y="389" on="1"/>
        <pt x="261" y="317" on="1"/>
        <pt x="189" y="369" on="1"/>
        <pt x="189" y="256" on="1"/>
      </contour>
    </TTGlyph>
    <TTGlyph name="at" xMin="82" yMin="-154" xMax="502" yMax="451">
      <contour>
        <pt x="502" y="-154" on="1"/>
        <pt x="82" y="-154" on="1"/>
        <pt x="82" y="451" on="1"/>
        <pt x="502" y="451" on="1"/>
        <pt x="502" y="0" on="1"/>
        <pt x="248" y="0" on="1"/>
        <pt x="248" y="266" on="1"/>
        <pt x="422" y="266" on="1"/>
        <pt x="422" y="379" on="1"/>
        <pt x="163" y="379" on="1"/>
        <pt x="163" y="-74" on="1"/>
        <pt x="502" y="-74" on="1"/>
      </contour>
      <contour>
        <pt x="422" y="74" on="1"/>
        <pt x="422" y="193" on="1"/>
        <pt x="322" y="193" on="1"/>
        <pt x="322" y="74" on="1"/>
      </contour>
    </TTGlyph>
    <TTGlyph name="atilde" xMin="74" yMin="0" xMax="417" yMax="693">
      <contour>
        <pt x="133" y="633" on="1"/>
        <pt x="214" y="633" on="1"/>
        <pt x="214" y="546" on="1"/>
        <pt x="417" y="546" on="1"/>
        <pt x="417" y="693" on="1"/>
        <pt x="354" y="693" on="1"/>
        <pt x="354" y="610" on="1"/>
        <pt x="279" y="610" on="1"/>
        <pt x="279" y="693" on="1"/>
        <pt x="74" y="693" on="1"/>
        <pt x="74" y="546" on="1"/>
        <pt x="133" y="546" on="1"/>
      </contour>
      <contour>
        <pt x="319" y="266" on="1"/>
        <pt x="319" y="379" on="1"/>
        <pt x="82" y="379" on="1"/>
        <pt x="82" y="451" on="1"/>
        <pt x="399" y="451" on="1"/>
        <pt x="399" y="0" on="1"/>
        <pt x="84" y="0" on="1"/>
        <pt x="84" y="266" on="1"/>
      </contour>
      <contour>
        <pt x="319" y="193" on="1"/>
        <pt x="158" y="193" on="1"/>
        <pt x="158" y="74" on="1"/>
        <pt x="319" y="74" on="1"/>
      </contour>
    </TTGlyph>
    <TTGlyph name="b" xMin="82" yMin="0" xMax="399" yMax="676">
      <contour>
        <pt x="158" y="451" on="1"/>
        <pt x="399" y="451" on="1"/>
        <pt x="399" y="0" on="1"/>
        <pt x="82" y="0" on="1"/>
        <pt x="82" y="676" on="1"/>
        <pt x="158" y="676" on="1"/>
      </contour>
      <contour>
        <pt x="158" y="74" on="1"/>
        <pt x="319" y="75" on="1"/>
        <pt x="319" y="379" on="1"/>
        <pt x="158" y="379" on="1"/>
      </contour>
    </TTGlyph>
    <TTGlyph name="backslash" xMin="-3" yMin="-153" xMax="243" yMax="675">
      <contour>
        <pt x="71" y="675" on="1"/>
        <pt x="243" y="-136" on="1"/>
        <pt x="169" y="-153" on="1"/>
        <pt x="-3" y="658" on="1"/>
      </contour>
    </TTGlyph>
    <TTGlyph name="bar" xMin="82" yMin="-154" xMax="158" yMax="676">
      <contour>
        <pt x="82" y="676" on="1"/>
        <pt x="82" y="-154" on="1"/>
        <pt x="158" y="-154" on="1"/>
        <pt x="158" y="676" on="1"/>
      </contour>
    </TTGlyph>
    <TTGlyph name="braceleft" xMin="0" yMin="-184" xMax="359" yMax="676">
      <contour>
        <pt x="0" y="296" on="1"/>
        <pt x="111" y="296" on="1"/>
        <pt x="111" y="676" on="1"/>
        <pt x="359" y="676" on="1"/>
        <pt x="359" y="594" on="1"/>
        <pt x="186" y="594" on="1"/>
        <pt x="186" y="-102" on="1"/>
        <pt x="359" y="-102" on="1"/>
        <pt x="359" y="-184" on="1"/>
        <pt x="111" y="-184" on="1"/>
        <pt x="111" y="215" on="1"/>
        <pt x="0" y="215" on="1"/>
      </contour>
    </TTGlyph>
    <TTGlyph name="braceright" xMin="-20" yMin="-184" xMax="339" yMax="676">
      <contour>
        <pt x="339" y="296" on="1"/>
        <pt x="228" y="296" on="1"/>
        <pt x="228" y="676" on="1"/>
        <pt x="-20" y="676" on="1"/>
        <pt x="-20" y="594" on="1"/>
        <pt x="153" y="594" on="1"/>
        <pt x="153" y="-102" on="1"/>
        <pt x="-20" y="-102" on="1"/>
        <pt x="-20" y="-184" on="1"/>
        <pt x="228" y="-184" on="1"/>
        <pt x="228" y="215" on="1"/>
        <pt x="339" y="215" on="1"/>
      </contour>
    </TTGlyph>
    <TTGlyph name="bracketleft" xMin="0" yMin="-195" xMax="249" yMax="676">
      <contour>
        <pt x="249" y="-195" on="1"/>
        <pt x="0" y="-195" on="1"/>
        <pt x="0" y="676" on="1"/>
        <pt x="249" y="676" on="1"/>
        <pt x="249" y="594" on="1"/>
        <pt x="76" y="594" on="1"/>
        <pt x="76" y="-113" on="1"/>
        <pt x="249" y="-113" on="1"/>
      </contour>
    </TTGlyph>
    <TTGlyph name="bracketright" xMin="-20" yMin="-195" xMax="228" yMax="676">
      <contour>
        <pt x="-20" y="-195" on="1"/>
        <pt x="228" y="-195" on="1"/>
        <pt x="228" y="676" on="1"/>
        <pt x="-20" y="676" on="1"/>
        <pt x="-20" y="594" on="1"/>
        <pt x="153" y="594" on="1"/>
        <pt x="153" y="-113" on="1"/>
        <pt x="-20" y="-113" on="1"/>
      </contour>
    </TTGlyph>
    <TTGlyph name="breve" xMin="86" yMin="487" xMax="365" yMax="680">
      <contour>
        <pt x="225" y="487" on="1"/>
        <pt x="86" y="627" on="1"/>
        <pt x="141" y="680" on="1"/>
        <pt x="225" y="588" on="1"/>
        <pt x="309" y="680" on="1"/>
        <pt x="365" y="627" on="1"/>
      </contour>
    </TTGlyph>
    <TTGlyph name="brokenbar" xMin="82" yMin="-143" xMax="158" yMax="676">
      <contour>
        <pt x="82" y="205" on="1"/>
        <pt x="82" y="-143" on="1"/>
        <pt x="158" y="-143" on="1"/>
        <pt x="158" y="205" on="1"/>
      </contour>
      <contour>
        <pt x="82" y="676" on="1"/>
        <pt x="82" y="328" on="1"/>
        <pt x="158" y="328" on="1"/>
        <pt x="158" y="676" on="1"/>
      </contour>
    </TTGlyph>
    <TTGlyph name="bullet" xMin="102" yMin="205" xMax="307" yMax="451">
      <contour>
        <pt x="102" y="451" on="1"/>
        <pt x="307" y="451" on="1"/>
        <pt x="307" y="205" on="1"/>
        <pt x="102" y="205" on="1"/>
      </contour>
    </TTGlyph>
    <TTGlyph name="c" xMin="82" yMin="0" xMax="399" yMax="451">
      <contour>
        <pt x="324" y="376" on="1"/>
        <pt x="162" y="376" on="1"/>
        <pt x="162" y="72" on="1"/>
        <pt x="391" y="72" on="1"/>
        <pt x="391" y="0" on="1"/>
        <pt x="82" y="0" on="1"/>
        <pt x="82" y="451" on="1"/>
        <pt x="399" y="451" on="1"/>
        <pt x="399" y="287" on="1"/>
        <pt x="324" y="287" on="1"/>
      </contour>
    </TTGlyph>
    <TTGlyph name="ccedilla" xMin="82" yMin="-174" xMax="399" yMax="451">
      <contour>
        <pt x="195" y="-174" on="1"/>
        <pt x="247" y="0" on="1"/>
        <pt x="82" y="0" on="1"/>
        <pt x="82" y="451" on="1"/>
        <pt x="399" y="451" on="1"/>
        <pt x="399" y="287" on="1"/>
        <pt x="324" y="287" on="1"/>
        <pt x="324" y="376" on="1"/>
        <pt x="162" y="376" on="1"/>
        <pt x="162" y="72" on="1"/>
        <pt x="391" y="72" on="1"/>
        <pt x="391" y="0" on="1"/>
        <pt x="325" y="0" on="1"/>
        <pt x="281" y="-174" on="1"/>
      </contour>
    </TTGlyph>
    <TTGlyph name="cedilla" xMin="195" yMin="-174" xMax="332" yMax="31">
      <contour>
        <pt x="195" y="-174" on="1"/>
        <pt x="256" y="31" on="1"/>
        <pt x="332" y="31" on="1"/>
        <pt x="281" y="-174" on="1"/>
      </contour>
    </TTGlyph>
    <TTGlyph name="cent" xMin="82" yMin="-82" xMax="399" yMax="563">
      <contour>
        <pt x="210" y="376" on="1"/>
        <pt x="162" y="376" on="1"/>
        <pt x="162" y="72" on="1"/>
        <pt x="210" y="72" on="1"/>
      </contour>
      <contour>
        <pt x="399" y="287" on="1"/>
        <pt x="324" y="287" on="1"/>
        <pt x="324" y="376" on="1"/>
        <pt x="282" y="376" on="1"/>
        <pt x="282" y="72" on="1"/>
        <pt x="391" y="72" on="1"/>
        <pt x="391" y="0" on="1"/>
        <pt x="282" y="0" on="1"/>
        <pt x="282" y="-82" on="1"/>
        <pt x="210" y="-82" on="1"/>
        <pt x="210" y="0" on="1"/>
        <pt x="82" y="0" on="1"/>
        <pt x="82" y="451" on="1"/>
        <pt x="210" y="451" on="1"/>
        <pt x="210" y="563" on="1"/>
        <pt x="282" y="563" on="1"/>
        <pt x="282" y="451" on="1"/>
        <pt x="399" y="451" on="1"/>
      </contour>
    </TTGlyph>
    <TTGlyph name="circumflex" xMin="86" yMin="487" xMax="365" yMax="680">
      <contour>
        <pt x="225" y="680" on="1"/>
        <pt x="365" y="541" on="1"/>
        <pt x="309" y="487" on="1"/>
        <pt x="225" y="580" on="1"/>
        <pt x="141" y="487" on="1"/>
        <pt x="86" y="541" on="1"/>
      </contour>
    </TTGlyph>
    <TTGlyph name="colon" xMin="82" yMin="0" xMax="158" yMax="451">
      <contour>
        <pt x="82" y="123" on="1"/>
        <pt x="82" y="0" on="1"/>
        <pt x="158" y="0" on="1"/>
        <pt x="158" y="123" on="1"/>
      </contour>
      <contour>
        <pt x="82" y="451" on="1"/>
        <pt x="82" y="328" on="1"/>
        <pt x="158" y="328" on="1"/>
        <pt x="158" y="451" on="1"/>
      </contour>
    </TTGlyph>
    <TTGlyph name="comma" xMin="51" yMin="-82" xMax="178" yMax="123">
      <contour>
        <pt x="51" y="-82" on="1"/>
        <pt x="102" y="123" on="1"/>
        <pt x="178" y="123" on="1"/>
        <pt x="127" y="-82" on="1"/>
      </contour>
    </TTGlyph>
    <TTGlyph name="copyright" xMin="82" yMin="-76" xMax="584" yMax="594">
      <contour>
        <pt x="365" y="355" on="1"/>
        <pt x="305" y="355" on="1"/>
        <pt x="305" y="174" on="1"/>
        <pt x="422" y="174" on="1"/>
        <pt x="422" y="102" on="1"/>
        <pt x="236" y="102" on="1"/>
        <pt x="236" y="430" on="1"/>
        <pt x="430" y="430" on="1"/>
        <pt x="430" y="287" on="1"/>
        <pt x="365" y="287" on="1"/>
      </contour>
      <contour>
        <pt x="158" y="2" on="1"/>
        <pt x="504" y="2" on="1"/>
        <pt x="504" y="521" on="1"/>
        <pt x="158" y="521" on="1"/>
      </contour>
      <contour>
        <pt x="82" y="-76" on="1"/>
        <pt x="82" y="594" on="1"/>
        <pt x="584" y="594" on="1"/>
        <pt x="584" y="-76" on="1"/>
      </contour>
    </TTGlyph>
    <TTGlyph name="d" xMin="82" yMin="0" xMax="399" yMax="676">
      <contour>
        <pt x="324" y="451" on="1"/>
        <pt x="324" y="676" on="1"/>
        <pt x="399" y="676" on="1"/>
        <pt x="399" y="0" on="1"/>
        <pt x="82" y="0" on="1"/>
        <pt x="82" y="451" on="1"/>
      </contour>
      <contour>
        <pt x="324" y="74" on="1"/>
        <pt x="324" y="379" on="1"/>
        <pt x="162" y="379" on="1"/>
        <pt x="162" y="75" on="1"/>
      </contour>
    </TTGlyph>
    <TTGlyph name="dieresis" xMin="82" yMin="543" xMax="342" yMax="676">
      <contour>
        <pt x="82" y="676" on="1"/>
        <pt x="82" y="543" on="1"/>
        <pt x="158" y="543" on="1"/>
        <pt x="158" y="676" on="1"/>
      </contour>
      <contour>
        <pt x="266" y="676" on="1"/>
        <pt x="266" y="543" on="1"/>
        <pt x="342" y="543" on="1"/>
        <pt x="342" y="676" on="1"/>
      </contour>
    </TTGlyph>
    <TTGlyph name="divide" xMin="41" yMin="0" xMax="471" yMax="451">
      <contour>
        <pt x="220" y="102" on="1"/>
        <pt x="220" y="0" on="1"/>
        <pt x="296" y="0" on="1"/>
        <pt x="296" y="102" on="1"/>
      </contour>
      <contour>
        <pt x="220" y="451" on="1"/>
        <pt x="220" y="348" on="1"/>
        <pt x="296" y="348" on="1"/>
        <pt x="296" y="451" on="1"/>
      </contour>
      <contour>
        <pt x="471" y="195" on="1"/>
        <pt x="471" y="266" on="1"/>
        <pt x="41" y="266" on="1"/>
        <pt x="41" y="195" on="1"/>
      </contour>
    </TTGlyph>
    <TTGlyph name="dollar" xMin="82" yMin="-82" xMax="399" yMax="563">
      <contour>
        <pt x="275" y="75" on="1"/>
        <pt x="319" y="75" on="1"/>
        <pt x="319" y="170" on="1"/>
        <pt x="275" y="176" on="1"/>
      </contour>
      <contour>
        <pt x="204" y="376" on="1"/>
        <pt x="162" y="376" on="1"/>
        <pt x="162" y="276" on="1"/>
        <pt x="204" y="270" on="1"/>
      </contour>
      <contour>
        <pt x="275" y="563" on="1"/>
        <pt x="275" y="451" on="1"/>
        <pt x="399" y="451" on="1"/>
        <pt x="399" y="328" on="1"/>
        <pt x="324" y="328" on="1"/>
        <pt x="324" y="376" on="1"/>
        <pt x="275" y="376" on="1"/>
        <pt x="275" y="260" on="1"/>
        <pt x="397" y="243" on="1"/>
        <pt x="397" y="1" on="1"/>
        <pt x="275" y="1" on="1"/>
        <pt x="275" y="-82" on="1"/>
        <pt x="204" y="-82" on="1"/>
        <pt x="204" y="0" on="1"/>
        <pt x="82" y="0" on="1"/>
        <pt x="82" y="113" on="1"/>
        <pt x="158" y="113" on="1"/>
        <pt x="158" y="75" on="1"/>
        <pt x="204" y="75" on="1"/>
        <pt x="204" y="187" on="1"/>
        <pt x="82" y="205" on="1"/>
        <pt x="82" y="451" on="1"/>
        <pt x="204" y="451" on="1"/>
        <pt x="204" y="563" on="1"/>
      </contour>
    </TTGlyph>
    <TTGlyph name="dotlessi" xMin="82" yMin="0" xMax="158" yMax="451">
      <contour>
        <pt x="82" y="450" on="1"/>
        <pt x="82" y="0" on="1"/>
        <pt x="158" y="0" on="1"/>
        <pt x="158" y="451" on="1"/>
      </contour>
    </TTGlyph>
    <TTGlyph name="e" xMin="82" yMin="0" xMax="399" yMax="451">
      <contour>
        <pt x="162" y="184" on="1"/>
        <pt x="162" y="72" on="1"/>
        <pt x="399" y="72" on="1"/>
        <pt x="399" y="0" on="1"/>
        <pt x="82" y="0" on="1"/>
        <pt x="82" y="451" on="1"/>
        <pt x="397" y="451" on="1"/>
        <pt x="397" y="184" on="1"/>
      </contour>
      <contour>
        <pt x="162" y="258" on="1"/>
        <pt x="324" y="258" on="1"/>
        <pt x="324" y="377" on="1"/>
        <pt x="162" y="377" on="1"/>
      </contour>
    </TTGlyph>
    <TTGlyph name="eacute" xMin="82" yMin="0" xMax="399" yMax="676">
      <contour>
        <pt x="162" y="184" on="1"/>
        <pt x="162" y="72" on="1"/>
        <pt x="399" y="72" on="1"/>
        <pt x="399" y="0" on="1"/>
        <pt x="82" y="0" on="1"/>
        <pt x="82" y="451" on="1"/>
        <pt x="397" y="451" on="1"/>
        <pt x="397" y="184" on="1"/>
      </contour>
      <contour>
        <pt x="162" y="258" on="1"/>
        <pt x="324" y="258" on="1"/>
        <pt x="324" y="377" on="1"/>
        <pt x="162" y="377" on="1"/>
      </contour>
      <contour>
        <pt x="287" y="676" on="1"/>
        <pt x="82" y="543" on="1"/>
        <pt x="137" y="481" on="1"/>
        <pt x="342" y="614" on="1"/>
      </contour>
    </TTGlyph>
    <TTGlyph name="ecircumflex" xMin="82" yMin="0" xMax="399" yMax="680">
      <contour>
        <pt x="162" y="184" on="1"/>
        <pt x="162" y="72" on="1"/>
        <pt x="399" y="72" on="1"/>
        <pt x="399" y="0" on="1"/>
        <pt x="82" y="0" on="1"/>
        <pt x="82" y="451" on="1"/>
        <pt x="397" y="451" on="1"/>
        <pt x="397" y="184" on="1"/>
      </contour>
      <contour>
        <pt x="162" y="258" on="1"/>
        <pt x="324" y="258" on="1"/>
        <pt x="324" y="377" on="1"/>
        <pt x="162" y="377" on="1"/>
      </contour>
      <contour>
        <pt x="225" y="680" on="1"/>
        <pt x="365" y="541" on="1"/>
        <pt x="309" y="487" on="1"/>
        <pt x="225" y="580" on="1"/>
        <pt x="141" y="487" on="1"/>
        <pt x="86" y="541" on="1"/>
      </contour>
    </TTGlyph>
    <TTGlyph name="edieresis" xMin="82" yMin="0" xMax="399" yMax="676">
      <contour>
        <pt x="162" y="184" on="1"/>
        <pt x="162" y="72" on="1"/>
        <pt x="399" y="72" on="1"/>
        <pt x="399" y="0" on="1"/>
        <pt x="82" y="0" on="1"/>
        <pt x="82" y="451" on="1"/>
        <pt x="397" y="451" on="1"/>
        <pt x="397" y="184" on="1"/>
      </contour>
      <contour>
        <pt x="162" y="258" on="1"/>
        <pt x="324" y="258" on="1"/>
        <pt x="324" y="377" on="1"/>
        <pt x="162" y="377" on="1"/>
      </contour>
      <contour>
        <pt x="82" y="676" on="1"/>
        <pt x="82" y="543" on="1"/>
        <pt x="158" y="543" on="1"/>
        <pt x="158" y="676" on="1"/>
      </contour>
      <contour>
        <pt x="266" y="676" on="1"/>
        <pt x="266" y="543" on="1"/>
        <pt x="342" y="543" on="1"/>
        <pt x="342" y="676" on="1"/>
      </contour>
    </TTGlyph>
    <TTGlyph name="egrave" xMin="82" yMin="0" xMax="399" yMax="676">
      <contour>
        <pt x="162" y="184" on="1"/>
        <pt x="162" y="72" on="1"/>
        <pt x="399" y="72" on="1"/>
        <pt x="399" y="0" on="1"/>
        <pt x="82" y="0" on="1"/>
        <pt x="82" y="451" on="1"/>
        <pt x="397" y="451" on="1"/>
        <pt x="397" y="184" on="1"/>
      </contour>
      <contour>
        <pt x="162" y="258" on="1"/>
        <pt x="324" y="258" on="1"/>
        <pt x="324" y="377" on="1"/>
        <pt x="162" y="377" on="1"/>
      </contour>
      <contour>
        <pt x="137" y="676" on="1"/>
        <pt x="342" y="543" on="1"/>
        <pt x="287" y="481" on="1"/>
        <pt x="82" y="614" on="1"/>
      </contour>
    </TTGlyph>
    <TTGlyph name="eight" xMin="97" yMin="0" xMax="415" yMax="451">
      <contour>
        <pt x="178" y="255" on="1"/>
        <pt x="339" y="255" on="1"/>
        <pt x="339" y="376" on="1"/>
        <pt x="178" y="376" on="1"/>
      </contour>
      <contour>
        <pt x="178" y="174" on="1"/>
        <pt x="178" y="78" on="1"/>
        <pt x="339" y="79" on="1"/>
        <pt x="339" y="174" on="1"/>
      </contour>
      <contour>
        <pt x="97" y="451" on="1"/>
        <pt x="415" y="451" on="1"/>
        <pt x="415" y="0" on="1"/>
        <pt x="97" y="1" on="1"/>
      </contour>
    </TTGlyph>
    <TTGlyph name="emdash" xMin="0" yMin="205" xMax="1024" yMax="276">
      <contour>
        <pt x="1024" y="205" on="1"/>
        <pt x="1024" y="276" on="1"/>
        <pt x="0" y="276" on="1"/>
        <pt x="0" y="205" on="1"/>
      </contour>
    </TTGlyph>
    <TTGlyph name="endash" xMin="0" yMin="205" xMax="512" yMax="276">
      <contour>
        <pt x="512" y="205" on="1"/>
        <pt x="512" y="276" on="1"/>
        <pt x="0" y="276" on="1"/>
        <pt x="0" y="205" on="1"/>
      </contour>
    </TTGlyph>
    <TTGlyph name="equal" xMin="26" yMin="123" xMax="466" yMax="317">
      <contour>
        <pt x="466" y="246" on="1"/>
        <pt x="466" y="317" on="1"/>
        <pt x="26" y="317" on="1"/>
        <pt x="26" y="246" on="1"/>
      </contour>
      <contour>
        <pt x="466" y="123" on="1"/>
        <pt x="466" y="195" on="1"/>
        <pt x="26" y="195" on="1"/>
        <pt x="26" y="123" on="1"/>
      </contour>
    </TTGlyph>
    <TTGlyph name="exclam" xMin="82" yMin="0" xMax="158" yMax="676">
      <contour>
        <pt x="158" y="226" on="1"/>
        <pt x="158" y="676" on="1"/>
        <pt x="82" y="676" on="1"/>
        <pt x="82" y="225" on="1"/>
      </contour>
      <contour>
        <pt x="158" y="0" on="1"/>
        <pt x="158" y="133" on="1"/>
        <pt x="82" y="133" on="1"/>
        <pt x="82" y="0" on="1"/>
      </contour>
    </TTGlyph>
    <TTGlyph name="exclamdown" xMin="82" yMin="0" xMax="158" yMax="676">
      <contour>
        <pt x="82" y="450" on="1"/>
        <pt x="82" y="0" on="1"/>
        <pt x="158" y="0" on="1"/>
        <pt x="158" y="451" on="1"/>
      </contour>
      <contour>
        <pt x="82" y="676" on="1"/>
        <pt x="82" y="543" on="1"/>
        <pt x="158" y="543" on="1"/>
        <pt x="158" y="676" on="1"/>
      </contour>
    </TTGlyph>
    <TTGlyph name="f" xMin="82" yMin="0" xMax="399" yMax="645">
      <contour>
        <pt x="82" y="450" on="1"/>
        <pt x="180" y="450" on="1"/>
        <pt x="180" y="645" on="1"/>
        <pt x="399" y="645" on="1"/>
        <pt x="399" y="574" on="1"/>
        <pt x="256" y="574" on="1"/>
        <pt x="256" y="450" on="1"/>
        <pt x="399" y="450" on="1"/>
        <pt x="399" y="379" on="1"/>
        <pt x="256" y="379" on="1"/>
        <pt x="256" y="0" on="1"/>
        <pt x="180" y="0" on="1"/>
        <pt x="180" y="379" on="1"/>
        <pt x="82" y="379" on="1"/>
      </contour>
    </TTGlyph>
    <TTGlyph name="fi" xMin="82" yMin="0" xMax="567" yMax="676">
      <contour>
        <pt x="82" y="450" on="1"/>
        <pt x="180" y="450" on="1"/>
        <pt x="180" y="645" on="1"/>
        <pt x="399" y="645" on="1"/>
        <pt x="399" y="574" on="1"/>
        <pt x="256" y="574" on="1"/>
        <pt x="256" y="450" on="1"/>
        <pt x="399" y="450" on="1"/>
        <pt x="399" y="379" on="1"/>
        <pt x="256" y="379" on="1"/>
        <pt x="256" y="0" on="1"/>
        <pt x="180" y="0" on="1"/>
        <pt x="180" y="379" on="1"/>
        <pt x="82" y="379" on="1"/>
      </contour>
      <contour>
        <pt x="492" y="450" on="1"/>
        <pt x="492" y="0" on="1"/>
        <pt x="567" y="0" on="1"/>
        <pt x="567" y="451" on="1"/>
      </contour>
      <contour>
        <pt x="492" y="676" on="1"/>
        <pt x="492" y="543" on="1"/>
        <pt x="567" y="543" on="1"/>
        <pt x="567" y="676" on="1"/>
      </contour>
    </TTGlyph>
    <TTGlyph name="five" xMin="97" yMin="0" xMax="415" yMax="450">
      <contour>
        <pt x="334" y="196" on="1"/>
        <pt x="334" y="75" on="1"/>
        <pt x="173" y="75" on="1"/>
        <pt x="173" y="133" on="1"/>
        <pt x="97" y="133" on="1"/>
        <pt x="97" y="0" on="1"/>
        <pt x="415" y="0" on="1"/>
        <pt x="415" y="276" on="1"/>
        <pt x="185" y="276" on="1"/>
        <pt x="185" y="372" on="1"/>
        <pt x="415" y="373" on="1"/>
        <pt x="415" y="450" on="1"/>
        <pt x="97" y="450" on="1"/>
        <pt x="97" y="196" on="1"/>
      </contour>
    </TTGlyph>
    <TTGlyph name="fl" xMin="82" yMin="0" xMax="567" yMax="676">
      <contour>
        <pt x="82" y="450" on="1"/>
        <pt x="180" y="450" on="1"/>
        <pt x="180" y="645" on="1"/>
        <pt x="399" y="645" on="1"/>
        <pt x="399" y="574" on="1"/>
        <pt x="256" y="574" on="1"/>
        <pt x="256" y="450" on="1"/>
        <pt x="399" y="450" on="1"/>
        <pt x="399" y="379" on="1"/>
        <pt x="256" y="379" on="1"/>
        <pt x="256" y="0" on="1"/>
        <pt x="180" y="0" on="1"/>
        <pt x="180" y="379" on="1"/>
        <pt x="82" y="379" on="1"/>
      </contour>
      <contour>
        <pt x="492" y="676" on="1"/>
        <pt x="492" y="0" on="1"/>
        <pt x="567" y="0" on="1"/>
        <pt x="567" y="676" on="1"/>
      </contour>
    </TTGlyph>
    <TTGlyph name="florin" xMin="82" yMin="-195" xMax="399" yMax="451">
      <contour>
        <pt x="82" y="255" on="1"/>
        <pt x="180" y="255" on="1"/>
        <pt x="180" y="451" on="1"/>
        <pt x="399" y="451" on="1"/>
        <pt x="399" y="380" on="1"/>
        <pt x="256" y="380" on="1"/>
        <pt x="256" y="255" on="1"/>
        <pt x="399" y="255" on="1"/>
        <pt x="399" y="184" on="1"/>
        <pt x="256" y="184" on="1"/>
        <pt x="256" y="-195" on="1"/>
        <pt x="180" y="-195" on="1"/>
        <pt x="180" y="184" on="1"/>
        <pt x="82" y="184" on="1"/>
      </contour>
    </TTGlyph>
    <TTGlyph name="four" xMin="77" yMin="-102" xMax="443" yMax="451">
      <contour>
        <pt x="302" y="75" on="1"/>
        <pt x="302" y="294" on="1"/>
        <pt x="175" y="75" on="1"/>
      </contour>
      <contour>
        <pt x="382" y="-102" on="1"/>
        <pt x="302" y="-102" on="1"/>
        <pt x="302" y="0" on="1"/>
        <pt x="77" y="1" on="1"/>
        <pt x="77" y="79" on="1"/>
        <pt x="302" y="451" on="1"/>
        <pt x="382" y="451" on="1"/>
        <pt x="382" y="75" on="1"/>
        <pt x="443" y="75" on="1"/>
        <pt x="443" y="0" on="1"/>
        <pt x="382" y="0" on="1"/>
      </contour>
    </TTGlyph>
    <TTGlyph name="fraction" xMin="82" yMin="1" xMax="399" yMax="480">
      <contour>
        <pt x="399" y="444" on="1"/>
        <pt x="337" y="480" on="1"/>
        <pt x="82" y="37" on="1"/>
        <pt x="144" y="1" on="1"/>
      </contour>
    </TTGlyph>
    <TTGlyph name="g" xMin="82" yMin="-184" xMax="399" yMax="451">
      <contour>
        <pt x="319" y="0" on="1"/>
        <pt x="319" y="-113" on="1"/>
        <pt x="82" y="-113" on="1"/>
        <pt x="82" y="-184" on="1"/>
        <pt x="399" y="-184" on="1"/>
        <pt x="399" y="451" on="1"/>
        <pt x="84" y="451" on="1"/>
        <pt x="84" y="0" on="1"/>
      </contour>
      <contour>
        <pt x="319" y="74" on="1"/>
        <pt x="158" y="74" on="1"/>
        <pt x="158" y="377" on="1"/>
        <pt x="319" y="377" on="1"/>
      </contour>
    </TTGlyph>
    <TTGlyph name="germandbls" xMin="82" yMin="0" xMax="588" yMax="645">
      <contour>
        <pt x="82" y="645" on="1"/>
        <pt x="301" y="645" on="1"/>
        <pt x="301" y="574" on="1"/>
        <pt x="158" y="574" on="1"/>
        <pt x="158" y="0" on="1"/>
        <pt x="82" y="0" on="1"/>
      </contour>
      <contour>
        <pt x="346" y="75" on="1"/>
        <pt x="346" y="113" on="1"/>
        <pt x="270" y="113" on="1"/>
        <pt x="270" y="0" on="1"/>
        <pt x="586" y="1" on="1"/>
        <pt x="586" y="232" on="1"/>
        <pt x="350" y="287" on="1"/>
        <pt x="350" y="376" on="1"/>
        <pt x="512" y="376" on="1"/>
        <pt x="512" y="287" on="1"/>
        <pt x="588" y="287" on="1"/>
        <pt x="588" y="451" on="1"/>
        <pt x="270" y="451" on="1"/>
        <pt x="270" y="215" on="1"/>
        <pt x="508" y="160" on="1"/>
        <pt x="508" y="75" on="1"/>
      </contour>
    </TTGlyph>
    <TTGlyph name="grave" xMin="82" yMin="481" xMax="342" yMax="676">
      <contour>
        <pt x="137" y="676" on="1"/>
        <pt x="342" y="543" on="1"/>
        <pt x="287" y="481" on="1"/>
        <pt x="82" y="614" on="1"/>
      </contour>
    </TTGlyph>
    <TTGlyph name="greater" xMin="10" yMin="4" xMax="502" yMax="467">
      <contour>
        <pt x="502" y="236" on="1"/>
        <pt x="74" y="467" on="1"/>
        <pt x="10" y="399" on="1"/>
        <pt x="335" y="236" on="1"/>
        <pt x="10" y="72" on="1"/>
        <pt x="74" y="4" on="1"/>
      </contour>
    </TTGlyph>
    <TTGlyph name="greaterequal" xMin="26" yMin="0" xMax="364" yMax="498">
      <contour>
        <pt x="338" y="307" on="1"/>
        <pt x="106" y="498" on="1"/>
        <pt x="51" y="440" on="1"/>
        <pt x="222" y="307" on="1"/>
        <pt x="51" y="174" on="1"/>
        <pt x="106" y="117" on="1"/>
      </contour>
      <contour>
        <pt x="26" y="0" on="1"/>
        <pt x="26" y="72" on="1"/>
        <pt x="364" y="72" on="1"/>
        <pt x="364" y="0" on="1"/>
      </contour>
    </TTGlyph>
    <TTGlyph name="guillemotleft" xMin="51" yMin="4" xMax="543" yMax="467">
      <contour>
        <pt x="51" y="236" on="1"/>
        <pt x="283" y="467" on="1"/>
        <pt x="338" y="410" on="1"/>
        <pt x="167" y="236" on="1"/>
        <pt x="338" y="61" on="1"/>
        <pt x="283" y="4" on="1"/>
      </contour>
      <contour>
        <pt x="256" y="236" on="1"/>
        <pt x="487" y="467" on="1"/>
        <pt x="543" y="410" on="1"/>
        <pt x="372" y="236" on="1"/>
        <pt x="543" y="61" on="1"/>
        <pt x="487" y="4" on="1"/>
      </contour>
    </TTGlyph>
    <TTGlyph name="guillemotright" xMin="51" yMin="4" xMax="543" yMax="467">
      <contour>
        <pt x="543" y="236" on="1"/>
        <pt x="311" y="467" on="1"/>
        <pt x="256" y="410" on="1"/>
        <pt x="427" y="236" on="1"/>
        <pt x="256" y="61" on="1"/>
        <pt x="311" y="4" on="1"/>
      </contour>
      <contour>
        <pt x="338" y="236" on="1"/>
        <pt x="106" y="467" on="1"/>
        <pt x="51" y="410" on="1"/>
        <pt x="222" y="236" on="1"/>
        <pt x="51" y="61" on="1"/>
        <pt x="106" y="4" on="1"/>
      </contour>
    </TTGlyph>
    <TTGlyph name="guilsinglleft" xMin="51" yMin="4" xMax="338" yMax="467">
      <contour>
        <pt x="51" y="236" on="1"/>
        <pt x="283" y="467" on="1"/>
        <pt x="338" y="410" on="1"/>
        <pt x="167" y="236" on="1"/>
        <pt x="338" y="61" on="1"/>
        <pt x="283" y="4" on="1"/>
      </contour>
    </TTGlyph>
    <TTGlyph name="guilsinglright" xMin="51" yMin="4" xMax="338" yMax="467">
      <contour>
        <pt x="338" y="236" on="1"/>
        <pt x="106" y="467" on="1"/>
        <pt x="51" y="410" on="1"/>
        <pt x="222" y="236" on="1"/>
        <pt x="51" y="61" on="1"/>
        <pt x="106" y="4" on="1"/>
      </contour>
    </TTGlyph>
    <TTGlyph name="h" xMin="82" yMin="0" xMax="399" yMax="676">
      <contour>
        <pt x="399" y="0" on="1"/>
        <pt x="399" y="451" on="1"/>
        <pt x="158" y="451" on="1"/>
        <pt x="158" y="676" on="1"/>
        <pt x="82" y="676" on="1"/>
        <pt x="82" y="0" on="1"/>
        <pt x="158" y="0" on="1"/>
        <pt x="158" y="379" on="1"/>
        <pt x="319" y="379" on="1"/>
        <pt x="319" y="0" on="1"/>
      </contour>
    </TTGlyph>
    <TTGlyph name="hyphen" xMin="26" yMin="205" xMax="302" yMax="276">
      <contour>
        <pt x="302" y="205" on="1"/>
        <pt x="302" y="276" on="1"/>
        <pt x="26" y="276" on="1"/>
        <pt x="26" y="205" on="1"/>
      </contour>
    </TTGlyph>
    <TTGlyph name="i" xMin="82" yMin="0" xMax="158" yMax="676">
      <contour>
        <pt x="82" y="450" on="1"/>
        <pt x="82" y="0" on="1"/>
        <pt x="158" y="0" on="1"/>
        <pt x="158" y="451" on="1"/>
      </contour>
      <contour>
        <pt x="82" y="676" on="1"/>
        <pt x="82" y="543" on="1"/>
        <pt x="158" y="543" on="1"/>
        <pt x="158" y="676" on="1"/>
      </contour>
    </TTGlyph>
    <TTGlyph name="iacute" xMin="-10" yMin="0" xMax="250" yMax="676">
      <contour>
        <pt x="82" y="450" on="1"/>
        <pt x="82" y="0" on="1"/>
        <pt x="158" y="0" on="1"/>
        <pt x="158" y="451" on="1"/>
      </contour>
      <contour>
        <pt x="195" y="676" on="1"/>
        <pt x="-10" y="543" on="1"/>
        <pt x="45" y="481" on="1"/>
        <pt x="250" y="614" on="1"/>
      </contour>
    </TTGlyph>
    <TTGlyph name="icircumflex" xMin="-16" yMin="0" xMax="262" yMax="680">
      <contour>
        <pt x="82" y="450" on="1"/>
        <pt x="82" y="0" on="1"/>
        <pt x="158" y="0" on="1"/>
        <pt x="158" y="451" on="1"/>
      </contour>
      <contour>
        <pt x="123" y="680" on="1"/>
        <pt x="262" y="541" on="1"/>
        <pt x="207" y="487" on="1"/>
        <pt x="123" y="580" on="1"/>
        <pt x="39" y="487" on="1"/>
        <pt x="-16" y="541" on="1"/>
      </contour>
    </TTGlyph>
    <TTGlyph name="idieresis" xMin="-10" yMin="0" xMax="250" yMax="676">
      <contour>
        <pt x="82" y="450" on="1"/>
        <pt x="82" y="0" on="1"/>
        <pt x="158" y="0" on="1"/>
        <pt x="158" y="451" on="1"/>
      </contour>
      <contour>
        <pt x="-10" y="676" on="1"/>
        <pt x="-10" y="543" on="1"/>
        <pt x="66" y="543" on="1"/>
        <pt x="66" y="676" on="1"/>
      </contour>
      <contour>
        <pt x="174" y="676" on="1"/>
        <pt x="174" y="543" on="1"/>
        <pt x="250" y="543" on="1"/>
        <pt x="250" y="676" on="1"/>
      </contour>
    </TTGlyph>
    <TTGlyph name="igrave" xMin="-10" yMin="0" xMax="250" yMax="676">
      <contour>
        <pt x="82" y="450" on="1"/>
        <pt x="82" y="0" on="1"/>
        <pt x="158" y="0" on="1"/>
        <pt x="158" y="451" on="1"/>
      </contour>
      <contour>
        <pt x="45" y="676" on="1"/>
        <pt x="250" y="543" on="1"/>
        <pt x="195" y="481" on="1"/>
        <pt x="-10" y="614" on="1"/>
      </contour>
    </TTGlyph>
    <TTGlyph name="infinity" xMin="31" yMin="77" xMax="481" yMax="394">
      <contour>
        <pt x="216" y="158" on="1"/>
        <pt x="216" y="318" on="1"/>
        <pt x="105" y="318" on="1"/>
        <pt x="105" y="158" on="1"/>
      </contour>
      <contour>
        <pt x="297" y="158" on="1"/>
        <pt x="402" y="158" on="1"/>
        <pt x="402" y="318" on="1"/>
        <pt x="297" y="318" on="1"/>
      </contour>
      <contour>
        <pt x="31" y="77" on="1"/>
        <pt x="31" y="394" on="1"/>
        <pt x="481" y="394" on="1"/>
        <pt x="480" y="77" on="1"/>
      </contour>
    </TTGlyph>
    <TTGlyph name="j" xMin="0" yMin="-154" xMax="157" yMax="676">
      <contour>
        <pt x="81" y="676" on="1"/>
        <pt x="157" y="676" on="1"/>
        <pt x="157" y="543" on="1"/>
        <pt x="81" y="543" on="1"/>
      </contour>
      <contour>
        <pt x="0" y="-154" on="1"/>
        <pt x="0" y="-78" on="1"/>
        <pt x="81" y="-78" on="1"/>
        <pt x="81" y="450" on="1"/>
        <pt x="157" y="450" on="1"/>
        <pt x="157" y="-154" on="1"/>
      </contour>
    </TTGlyph>
    <TTGlyph name="k" xMin="82" yMin="0" xMax="430" yMax="676">
      <contour>
        <pt x="430" y="0" on="1"/>
        <pt x="230" y="233" on="1"/>
        <pt x="420" y="450" on="1"/>
        <pt x="311" y="450" on="1"/>
        <pt x="158" y="259" on="1"/>
        <pt x="158" y="676" on="1"/>
        <pt x="82" y="676" on="1"/>
        <pt x="82" y="0" on="1"/>
        <pt x="158" y="0" on="1"/>
        <pt x="158" y="198" on="1"/>
        <pt x="173" y="198" on="1"/>
        <pt x="312" y="0" on="1"/>
      </contour>
    </TTGlyph>
    <TTGlyph name="l" xMin="82" yMin="0" xMax="158" yMax="676">
      <contour>
        <pt x="82" y="676" on="1"/>
        <pt x="82" y="0" on="1"/>
        <pt x="158" y="0" on="1"/>
        <pt x="158" y="676" on="1"/>
      </contour>
    </TTGlyph>
    <TTGlyph name="less" xMin="10" yMin="4" xMax="502" yMax="467">
      <contour>
        <pt x="10" y="236" on="1"/>
        <pt x="438" y="467" on="1"/>
        <pt x="502" y="399" on="1"/>
        <pt x="177" y="236" on="1"/>
        <pt x="502" y="72" on="1"/>
        <pt x="438" y="4" on="1"/>
      </contour>
    </TTGlyph>
    <TTGlyph name="lessequal" xMin="26" yMin="0" xMax="364" yMax="498">
      <contour>
        <pt x="51" y="307" on="1"/>
        <pt x="283" y="498" on="1"/>
        <pt x="338" y="440" on="1"/>
        <pt x="167" y="307" on="1"/>
        <pt x="338" y="174" on="1"/>
        <pt x="283" y="117" on="1"/>
      </contour>
      <contour>
        <pt x="364" y="0" on="1"/>
        <pt x="364" y="72" on="1"/>
        <pt x="26" y="72" on="1"/>
        <pt x="26" y="0" on="1"/>
      </contour>
    </TTGlyph>
    <TTGlyph name="m" xMin="82" yMin="0" xMax="635" yMax="451">
      <contour>
        <pt x="399" y="0" on="1"/>
        <pt x="317" y="0" on="1"/>
        <pt x="317" y="379" on="1"/>
        <pt x="158" y="379" on="1"/>
        <pt x="158" y="0" on="1"/>
        <pt x="82" y="0" on="1"/>
        <pt x="82" y="451" on="1"/>
        <pt x="635" y="451" on="1"/>
        <pt x="635" y="0" on="1"/>
        <pt x="555" y="0" on="1"/>
        <pt x="555" y="379" on="1"/>
        <pt x="399" y="379" on="1"/>
      </contour>
    </TTGlyph>
    <TTGlyph name="minus" xMin="15" yMin="205" xMax="394" yMax="276">
      <contour>
        <pt x="394" y="205" on="1"/>
        <pt x="394" y="276" on="1"/>
        <pt x="15" y="276" on="1"/>
        <pt x="15" y="205" on="1"/>
      </contour>
    </TTGlyph>
    <TTGlyph name="multiply" xMin="72" yMin="44" xMax="441" yMax="414">
      <contour>
        <pt x="383" y="44" on="1"/>
        <pt x="256" y="171" on="1"/>
        <pt x="130" y="44" on="1"/>
        <pt x="72" y="102" on="1"/>
        <pt x="199" y="228" on="1"/>
        <pt x="72" y="355" on="1"/>
        <pt x="130" y="414" on="1"/>
        <pt x="256" y="287" on="1"/>
        <pt x="383" y="414" on="1"/>
        <pt x="441" y="355" on="1"/>
        <pt x="314" y="228" on="1"/>
        <pt x="441" y="102" on="1"/>
      </contour>
    </TTGlyph>
    <TTGlyph name="n" xMin="82" yMin="0" xMax="399" yMax="451">
      <contour>
        <pt x="399" y="0" on="1"/>
        <pt x="399" y="451" on="1"/>
        <pt x="82" y="451" on="1"/>
        <pt x="82" y="0" on="1"/>
        <pt x="158" y="0" on="1"/>
        <pt x="158" y="379" on="1"/>
        <pt x="319" y="379" on="1"/>
        <pt x="319" y="0" on="1"/>
      </contour>
    </TTGlyph>
    <TTGlyph name="nine" xMin="97" yMin="0" xMax="415" yMax="451">
      <contour>
        <pt x="415" y="0" on="1"/>
        <pt x="97" y="1" on="1"/>
        <pt x="97" y="78" on="1"/>
        <pt x="339" y="79" on="1"/>
        <pt x="339" y="174" on="1"/>
        <pt x="97" y="174" on="1"/>
        <pt x="97" y="451" on="1"/>
        <pt x="415" y="451" on="1"/>
      </contour>
      <contour>
        <pt x="178" y="255" on="1"/>
        <pt x="339" y="255" on="1"/>
        <pt x="339" y="376" on="1"/>
        <pt x="178" y="376" on="1"/>
      </contour>
    </TTGlyph>
    <TTGlyph name="notequal" xMin="26" yMin="-30" xMax="466" yMax="388">
      <contour>
        <pt x="466" y="82" on="1"/>
        <pt x="231" y="82" on="1"/>
        <pt x="167" y="-30" on="1"/>
        <pt x="104" y="6" on="1"/>
        <pt x="148" y="82" on="1"/>
        <pt x="26" y="82" on="1"/>
        <pt x="26" y="154" on="1"/>
        <pt x="189" y="154" on="1"/>
        <pt x="219" y="205" on="1"/>
        <pt x="26" y="205" on="1"/>
        <pt x="26" y="276" on="1"/>
        <pt x="260" y="276" on="1"/>
        <pt x="325" y="388" on="1"/>
        <pt x="387" y="352" on="1"/>
        <pt x="343" y="276" on="1"/>
        <pt x="466" y="276" on="1"/>
        <pt x="466" y="205" on="1"/>
        <pt x="302" y="205" on="1"/>
        <pt x="272" y="154" on="1"/>
        <pt x="466" y="154" on="1"/>
      </contour>
    </TTGlyph>
    <TTGlyph name="ntilde" xMin="74" yMin="0" xMax="417" yMax="683">
      <contour>
        <pt x="133" y="623" on="1"/>
        <pt x="214" y="623" on="1"/>
        <pt x="214" y="536" on="1"/>
        <pt x="417" y="536" on="1"/>
        <pt x="417" y="683" on="1"/>
        <pt x="354" y="683" on="1"/>
        <pt x="354" y="600" on="1"/>
        <pt x="279" y="600" on="1"/>
        <pt x="279" y="683" on="1"/>
        <pt x="74" y="683" on="1"/>
        <pt x="74" y="536" on="1"/>
        <pt x="133" y="536" on="1"/>
      </contour>
      <contour>
        <pt x="399" y="0" on="1"/>
        <pt x="399" y="451" on="1"/>
        <pt x="82" y="451" on="1"/>
        <pt x="82" y="0" on="1"/>
        <pt x="158" y="0" on="1"/>
        <pt x="158" y="379" on="1"/>
        <pt x="319" y="379" on="1"/>
        <pt x="319" y="0" on="1"/>
      </contour>
    </TTGlyph>
    <TTGlyph name="numbersign" xMin="41" yMin="287" xMax="379" yMax="636">
      <contour>
        <pt x="247" y="410" on="1"/>
        <pt x="247" y="493" on="1"/>
        <pt x="183" y="493" on="1"/>
        <pt x="183" y="410" on="1"/>
      </contour>
      <contour>
        <pt x="247" y="287" on="1"/>
        <pt x="247" y="339" on="1"/>
        <pt x="184" y="339" on="1"/>
        <pt x="184" y="287" on="1"/>
        <pt x="103" y="287" on="1"/>
        <pt x="103" y="339" on="1"/>
        <pt x="41" y="339" on="1"/>
        <pt x="41" y="410" on="1"/>
        <pt x="103" y="410" on="1"/>
        <pt x="103" y="493" on="1"/>
        <pt x="41" y="493" on="1"/>
        <pt x="41" y="563" on="1"/>
        <pt x="102" y="563" on="1"/>
        <pt x="102" y="636" on="1"/>
        <pt x="183" y="636" on="1"/>
        <pt x="183" y="563" on="1"/>
        <pt x="246" y="563" on="1"/>
        <pt x="246" y="636" on="1"/>
        <pt x="327" y="636" on="1"/>
        <pt x="327" y="563" on="1"/>
        <pt x="379" y="563" on="1"/>
        <pt x="379" y="493" on="1"/>
        <pt x="327" y="493" on="1"/>
        <pt x="327" y="410" on="1"/>
        <pt x="379" y="410" on="1"/>
        <pt x="379" y="339" on="1"/>
        <pt x="328" y="339" on="1"/>
        <pt x="328" y="287" on="1"/>
      </contour>
    </TTGlyph>
    <TTGlyph name="o" xMin="82" yMin="0" xMax="399" yMax="451">
      <contour>
        <pt x="82" y="0" on="1"/>
        <pt x="82" y="451" on="1"/>
        <pt x="399" y="451" on="1"/>
        <pt x="399" y="0" on="1"/>
      </contour>
      <contour>
        <pt x="324" y="377" on="1"/>
        <pt x="162" y="376" on="1"/>
        <pt x="162" y="72" on="1"/>
        <pt x="324" y="72" on="1"/>
      </contour>
    </TTGlyph>
    <TTGlyph name="oacute" xMin="82" yMin="0" xMax="399" yMax="676">
      <contour>
        <pt x="82" y="0" on="1"/>
        <pt x="82" y="451" on="1"/>
        <pt x="399" y="451" on="1"/>
        <pt x="399" y="0" on="1"/>
      </contour>
      <contour>
        <pt x="324" y="377" on="1"/>
        <pt x="162" y="376" on="1"/>
        <pt x="162" y="72" on="1"/>
        <pt x="324" y="72" on="1"/>
      </contour>
      <contour>
        <pt x="287" y="676" on="1"/>
        <pt x="82" y="543" on="1"/>
        <pt x="137" y="481" on="1"/>
        <pt x="342" y="614" on="1"/>
      </contour>
    </TTGlyph>
    <TTGlyph name="ocircumflex" xMin="82" yMin="0" xMax="399" yMax="680">
      <contour>
        <pt x="82" y="0" on="1"/>
        <pt x="82" y="451" on="1"/>
        <pt x="399" y="451" on="1"/>
        <pt x="399" y="0" on="1"/>
      </contour>
      <contour>
        <pt x="324" y="377" on="1"/>
        <pt x="162" y="376" on="1"/>
        <pt x="162" y="72" on="1"/>
        <pt x="324" y="72" on="1"/>
      </contour>
      <contour>
        <pt x="225" y="680" on="1"/>
        <pt x="365" y="541" on="1"/>
        <pt x="309" y="487" on="1"/>
        <pt x="225" y="580" on="1"/>
        <pt x="141" y="487" on="1"/>
        <pt x="86" y="541" on="1"/>
      </contour>
    </TTGlyph>
    <TTGlyph name="odieresis" xMin="82" yMin="0" xMax="399" yMax="676">
      <contour>
        <pt x="82" y="0" on="1"/>
        <pt x="82" y="451" on="1"/>
        <pt x="399" y="451" on="1"/>
        <pt x="399" y="0" on="1"/>
      </contour>
      <contour>
        <pt x="324" y="377" on="1"/>
        <pt x="162" y="376" on="1"/>
        <pt x="162" y="72" on="1"/>
        <pt x="324" y="72" on="1"/>
      </contour>
      <contour>
        <pt x="82" y="676" on="1"/>
        <pt x="82" y="543" on="1"/>
        <pt x="158" y="543" on="1"/>
        <pt x="158" y="676" on="1"/>
      </contour>
      <contour>
        <pt x="266" y="676" on="1"/>
        <pt x="266" y="543" on="1"/>
        <pt x="342" y="543" on="1"/>
        <pt x="342" y="676" on="1"/>
      </contour>
    </TTGlyph>
    <TTGlyph name="oe" xMin="82" yMin="0" xMax="625" yMax="451">
      <contour>
        <pt x="82" y="0" on="1"/>
        <pt x="82" y="451" on="1"/>
        <pt x="623" y="451" on="1"/>
        <pt x="623" y="184" on="1"/>
        <pt x="387" y="184" on="1"/>
        <pt x="387" y="72" on="1"/>
        <pt x="625" y="72" on="1"/>
        <pt x="625" y="0" on="1"/>
      </contour>
      <contour>
        <pt x="549" y="258" on="1"/>
        <pt x="549" y="377" on="1"/>
        <pt x="387" y="377" on="1"/>
        <pt x="387" y="258" on="1"/>
      </contour>
      <contour>
        <pt x="324" y="72" on="1"/>
        <pt x="324" y="377" on="1"/>
        <pt x="162" y="376" on="1"/>
        <pt x="162" y="72" on="1"/>
      </contour>
    </TTGlyph>
    <TTGlyph name="ograve" xMin="82" yMin="0" xMax="399" yMax="676">
      <contour>
        <pt x="82" y="0" on="1"/>
        <pt x="82" y="451" on="1"/>
        <pt x="399" y="451" on="1"/>
        <pt x="399" y="0" on="1"/>
      </contour>
      <contour>
        <pt x="324" y="377" on="1"/>
        <pt x="162" y="376" on="1"/>
        <pt x="162" y="72" on="1"/>
        <pt x="324" y="72" on="1"/>
      </contour>
      <contour>
        <pt x="137" y="676" on="1"/>
        <pt x="342" y="543" on="1"/>
        <pt x="287" y="481" on="1"/>
        <pt x="82" y="614" on="1"/>
      </contour>
    </TTGlyph>
    <TTGlyph name="one" xMin="108" yMin="0" xMax="356" yMax="451">
      <contour>
        <pt x="356" y="0" on="1"/>
        <pt x="281" y="0" on="1"/>
        <pt x="281" y="379" on="1"/>
        <pt x="108" y="379" on="1"/>
        <pt x="108" y="450" on="1"/>
        <pt x="356" y="451" on="1"/>
      </contour>
    </TTGlyph>
    <TTGlyph name="oslash" xMin="82" yMin="-102" xMax="399" yMax="573">
      <contour>
        <pt x="82" y="0" on="1"/>
        <pt x="82" y="451" on="1"/>
        <pt x="263" y="451" on="1"/>
        <pt x="297" y="573" on="1"/>
        <pt x="373" y="573" on="1"/>
        <pt x="339" y="451" on="1"/>
        <pt x="399" y="451" on="1"/>
        <pt x="399" y="0" on="1"/>
        <pt x="216" y="0" on="1"/>
        <pt x="188" y="-102" on="1"/>
        <pt x="113" y="-102" on="1"/>
        <pt x="140" y="0" on="1"/>
      </contour>
      <contour>
        <pt x="243" y="376" on="1"/>
        <pt x="162" y="376" on="1"/>
        <pt x="162" y="78" on="1"/>
      </contour>
      <contour>
        <pt x="324" y="376" on="1"/>
        <pt x="318" y="376" on="1"/>
        <pt x="236" y="72" on="1"/>
        <pt x="324" y="72" on="1"/>
      </contour>
    </TTGlyph>
    <TTGlyph name="otilde" xMin="74" yMin="0" xMax="417" yMax="683">
      <contour>
        <pt x="133" y="623" on="1"/>
        <pt x="214" y="623" on="1"/>
        <pt x="214" y="536" on="1"/>
        <pt x="417" y="536" on="1"/>
        <pt x="417" y="683" on="1"/>
        <pt x="354" y="683" on="1"/>
        <pt x="354" y="600" on="1"/>
        <pt x="279" y="600" on="1"/>
        <pt x="279" y="683" on="1"/>
        <pt x="74" y="683" on="1"/>
        <pt x="74" y="536" on="1"/>
        <pt x="133" y="536" on="1"/>
      </contour>
      <contour>
        <pt x="82" y="0" on="1"/>
        <pt x="82" y="451" on="1"/>
        <pt x="399" y="451" on="1"/>
        <pt x="399" y="0" on="1"/>
      </contour>
      <contour>
        <pt x="324" y="377" on="1"/>
        <pt x="162" y="376" on="1"/>
        <pt x="162" y="72" on="1"/>
        <pt x="324" y="72" on="1"/>
      </contour>
    </TTGlyph>
    <TTGlyph name="p" xMin="82" yMin="-225" xMax="399" yMax="451">
      <contour>
        <pt x="158" y="0" on="1"/>
        <pt x="399" y="0" on="1"/>
        <pt x="399" y="451" on="1"/>
        <pt x="82" y="451" on="1"/>
        <pt x="82" y="-225" on="1"/>
        <pt x="158" y="-225" on="1"/>
      </contour>
      <contour>
        <pt x="158" y="377" on="1"/>
        <pt x="319" y="376" on="1"/>
        <pt x="319" y="72" on="1"/>
        <pt x="158" y="72" on="1"/>
      </contour>
    </TTGlyph>
    <TTGlyph name="paragraph" xMin="82" yMin="0" xMax="328" yMax="573">
      <contour>
        <pt x="82" y="256" on="1"/>
        <pt x="251" y="256" on="1"/>
        <pt x="251" y="0" on="1"/>
        <pt x="328" y="0" on="1"/>
        <pt x="328" y="573" on="1"/>
        <pt x="82" y="573" on="1"/>
      </contour>
      <contour>
        <pt x="162" y="328" on="1"/>
        <pt x="162" y="502" on="1"/>
        <pt x="251" y="502" on="1"/>
        <pt x="251" y="328" on="1"/>
      </contour>
    </TTGlyph>
    <TTGlyph name="parenleft" xMin="82" yMin="-113" xMax="228" yMax="676">
      <contour>
        <pt x="228" y="-113" on="1"/>
        <pt x="82" y="-113" on="1"/>
        <pt x="82" y="676" on="1"/>
        <pt x="228" y="676" on="1"/>
        <pt x="228" y="594" on="1"/>
        <pt x="158" y="594" on="1"/>
        <pt x="158" y="-31" on="1"/>
        <pt x="228" y="-31" on="1"/>
      </contour>
    </TTGlyph>
    <TTGlyph name="parenright" xMin="82" yMin="-113" xMax="228" yMax="676">
      <contour>
        <pt x="82" y="-113" on="1"/>
        <pt x="228" y="-113" on="1"/>
        <pt x="228" y="676" on="1"/>
        <pt x="82" y="676" on="1"/>
        <pt x="82" y="594" on="1"/>
        <pt x="153" y="594" on="1"/>
        <pt x="153" y="-31" on="1"/>
        <pt x="82" y="-31" on="1"/>
      </contour>
    </TTGlyph>
    <TTGlyph name="percent" xMin="20" yMin="-34" xMax="518" yMax="589">
      <contour>
        <pt x="397" y="589" on="1"/>
        <pt x="59" y="4" on="1"/>
        <pt x="125" y="-34" on="1"/>
        <pt x="463" y="551" on="1"/>
      </contour>
      <contour>
        <pt x="20" y="358" on="1"/>
        <pt x="20" y="567" on="1"/>
        <pt x="211" y="567" on="1"/>
        <pt x="211" y="358" on="1"/>
      </contour>
      <contour>
        <pt x="156" y="523" on="1"/>
        <pt x="79" y="522" on="1"/>
        <pt x="79" y="401" on="1"/>
        <pt x="156" y="401" on="1"/>
      </contour>
      <contour>
        <pt x="328" y="0" on="1"/>
        <pt x="328" y="209" on="1"/>
        <pt x="518" y="209" on="1"/>
        <pt x="518" y="0" on="1"/>
      </contour>
      <contour>
        <pt x="463" y="164" on="1"/>
        <pt x="386" y="164" on="1"/>
        <pt x="386" y="43" on="1"/>
        <pt x="463" y="43" on="1"/>
      </contour>
    </TTGlyph>
    <TTGlyph name="period" xMin="82" yMin="0" xMax="158" yMax="123">
      <contour>
        <pt x="82" y="123" on="1"/>
        <pt x="82" y="0" on="1"/>
        <pt x="158" y="0" on="1"/>
        <pt x="158" y="123" on="1"/>
      </contour>
    </TTGlyph>
    <TTGlyph name="plus" xMin="26" yMin="0" xMax="466" yMax="451">
      <contour>
        <pt x="200" y="0" on="1"/>
        <pt x="200" y="205" on="1"/>
        <pt x="26" y="205" on="1"/>
        <pt x="26" y="276" on="1"/>
        <pt x="200" y="276" on="1"/>
        <pt x="200" y="451" on="1"/>
        <pt x="282" y="451" on="1"/>
        <pt x="282" y="276" on="1"/>
        <pt x="466" y="276" on="1"/>
        <pt x="466" y="205" on="1"/>
        <pt x="282" y="205" on="1"/>
        <pt x="282" y="0" on="1"/>
      </contour>
    </TTGlyph>
    <TTGlyph name="plusminus" xMin="26" yMin="-123" xMax="466" yMax="451">
      <contour>
        <pt x="466" y="-123" on="1"/>
        <pt x="466" y="-51" on="1"/>
        <pt x="26" y="-51" on="1"/>
        <pt x="26" y="-123" on="1"/>
      </contour>
      <contour>
        <pt x="200" y="0" on="1"/>
        <pt x="200" y="205" on="1"/>
        <pt x="26" y="205" on="1"/>
        <pt x="26" y="276" on="1"/>
        <pt x="200" y="276" on="1"/>
        <pt x="200" y="451" on="1"/>
        <pt x="282" y="451" on="1"/>
        <pt x="282" y="276" on="1"/>
        <pt x="466" y="276" on="1"/>
        <pt x="466" y="205" on="1"/>
        <pt x="282" y="205" on="1"/>
        <pt x="282" y="0" on="1"/>
      </contour>
    </TTGlyph>
    <TTGlyph name="q" xMin="82" yMin="-225" xMax="399" yMax="451">
      <contour>
        <pt x="324" y="0" on="1"/>
        <pt x="82" y="0" on="1"/>
        <pt x="82" y="451" on="1"/>
        <pt x="399" y="451" on="1"/>
        <pt x="399" y="-225" on="1"/>
        <pt x="324" y="-225" on="1"/>
      </contour>
      <contour>
        <pt x="324" y="377" on="1"/>
        <pt x="162" y="376" on="1"/>
        <pt x="162" y="72" on="1"/>
        <pt x="324" y="72" on="1"/>
      </contour>
    </TTGlyph>
    <TTGlyph name="question" xMin="81" yMin="0" xMax="397" yMax="635">
      <contour>
        <pt x="82" y="635" on="1"/>
        <pt x="397" y="635" on="1"/>
        <pt x="397" y="287" on="1"/>
        <pt x="262" y="287" on="1"/>
        <pt x="262" y="195" on="1"/>
        <pt x="184" y="195" on="1"/>
        <pt x="184" y="357" on="1"/>
        <pt x="324" y="357" on="1"/>
        <pt x="324" y="561" on="1"/>
        <pt x="81" y="561" on="1"/>
      </contour>
      <contour>
        <pt x="184" y="123" on="1"/>
        <pt x="184" y="0" on="1"/>
        <pt x="260" y="0" on="1"/>
        <pt x="260" y="123" on="1"/>
      </contour>
    </TTGlyph>
    <TTGlyph name="questiondown" xMin="81" yMin="0" xMax="397" yMax="635">
      <contour>
        <pt x="396" y="0" on="1"/>
        <pt x="81" y="0" on="1"/>
        <pt x="81" y="348" on="1"/>
        <pt x="216" y="348" on="1"/>
        <pt x="216" y="440" on="1"/>
        <pt x="294" y="440" on="1"/>
        <pt x="294" y="278" on="1"/>
        <pt x="155" y="278" on="1"/>
        <pt x="155" y="74" on="1"/>
        <pt x="397" y="74" on="1"/>
      </contour>
      <contour>
        <pt x="294" y="512" on="1"/>
        <pt x="294" y="635" on="1"/>
        <pt x="218" y="635" on="1"/>
        <pt x="218" y="512" on="1"/>
      </contour>
    </TTGlyph>
    <TTGlyph name="quotedbl" xMin="20" yMin="481" xMax="199" yMax="676">
      <contour>
        <pt x="20" y="676" on="1"/>
        <pt x="20" y="481" on="1"/>
        <pt x="96" y="481" on="1"/>
        <pt x="96" y="676" on="1"/>
      </contour>
      <contour>
        <pt x="123" y="676" on="1"/>
        <pt x="123" y="481" on="1"/>
        <pt x="199" y="481" on="1"/>
        <pt x="199" y="676" on="1"/>
      </contour>
    </TTGlyph>
    <TTGlyph name="quotedblbase" xMin="-20" yMin="-82" xMax="229" yMax="123">
      <contour>
        <pt x="102" y="-82" on="1"/>
        <pt x="143" y="123" on="1"/>
        <pt x="229" y="123" on="1"/>
        <pt x="178" y="-82" on="1"/>
      </contour>
      <contour>
        <pt x="-20" y="-82" on="1"/>
        <pt x="20" y="123" on="1"/>
        <pt x="106" y="123" on="1"/>
        <pt x="55" y="-82" on="1"/>
      </contour>
    </TTGlyph>
    <TTGlyph name="quotedblleft" xMin="20" yMin="430" xMax="281" yMax="635">
      <contour>
        <pt x="143" y="430" on="1"/>
        <pt x="205" y="635" on="1"/>
        <pt x="281" y="635" on="1"/>
        <pt x="229" y="430" on="1"/>
      </contour>
      <contour>
        <pt x="20" y="430" on="1"/>
        <pt x="82" y="635" on="1"/>
        <pt x="158" y="635" on="1"/>
        <pt x="106" y="430" on="1"/>
      </contour>
    </TTGlyph>
    <TTGlyph name="quotedblright" xMin="-20" yMin="430" xMax="229" yMax="635">
      <contour>
        <pt x="102" y="430" on="1"/>
        <pt x="143" y="635" on="1"/>
        <pt x="229" y="635" on="1"/>
        <pt x="178" y="430" on="1"/>
      </contour>
      <contour>
        <pt x="-20" y="430" on="1"/>
        <pt x="20" y="635" on="1"/>
        <pt x="106" y="635" on="1"/>
        <pt x="55" y="430" on="1"/>
      </contour>
    </TTGlyph>
    <TTGlyph name="quoteleft" xMin="20" yMin="430" xMax="158" yMax="635">
      <contour>
        <pt x="20" y="430" on="1"/>
        <pt x="82" y="635" on="1"/>
        <pt x="158" y="635" on="1"/>
        <pt x="106" y="430" on="1"/>
      </contour>
    </TTGlyph>
    <TTGlyph name="quoteright" xMin="-20" yMin="430" xMax="106" yMax="635">
      <contour>
        <pt x="-20" y="430" on="1"/>
        <pt x="20" y="635" on="1"/>
        <pt x="106" y="635" on="1"/>
        <pt x="55" y="430" on="1"/>
      </contour>
    </TTGlyph>
    <TTGlyph name="quotesinglbase" xMin="-20" yMin="-82" xMax="106" yMax="123">
      <contour>
        <pt x="-20" y="-82" on="1"/>
        <pt x="20" y="123" on="1"/>
        <pt x="106" y="123" on="1"/>
        <pt x="55" y="-82" on="1"/>
      </contour>
    </TTGlyph>
    <TTGlyph name="quotesingle" xMin="20" yMin="481" xMax="96" yMax="676">
      <contour>
        <pt x="20" y="676" on="1"/>
        <pt x="20" y="481" on="1"/>
        <pt x="96" y="481" on="1"/>
        <pt x="96" y="676" on="1"/>
      </contour>
    </TTGlyph>
    <TTGlyph name="r" xMin="82" yMin="0" xMax="348" yMax="451">
      <contour>
        <pt x="272" y="377" on="1"/>
        <pt x="162" y="376" on="1"/>
        <pt x="162" y="0" on="1"/>
        <pt x="82" y="0" on="1"/>
        <pt x="82" y="451" on="1"/>
        <pt x="348" y="451" on="1"/>
        <pt x="348" y="287" on="1"/>
        <pt x="272" y="287" on="1"/>
      </contour>
    </TTGlyph>
    <TTGlyph name="registered" xMin="82" yMin="-76" xMax="584" yMax="594">
      <contour>
        <pt x="158" y="2" on="1"/>
        <pt x="504" y="2" on="1"/>
        <pt x="504" y="521" on="1"/>
        <pt x="158" y="521" on="1"/>
      </contour>
      <contour>
        <pt x="82" y="-76" on="1"/>
        <pt x="82" y="594" on="1"/>
        <pt x="584" y="594" on="1"/>
        <pt x="584" y="-76" on="1"/>
      </contour>
      <contour>
        <pt x="471" y="102" on="1"/>
        <pt x="391" y="102" on="1"/>
        <pt x="324" y="236" on="1"/>
        <pt x="301" y="236" on="1"/>
        <pt x="301" y="102" on="1"/>
        <pt x="236" y="102" on="1"/>
        <pt x="236" y="430" on="1"/>
        <pt x="420" y="430" on="1"/>
        <pt x="420" y="236" on="1"/>
        <pt x="383" y="236" on="1"/>
      </contour>
      <contour>
        <pt x="360" y="287" on="1"/>
        <pt x="360" y="369" on="1"/>
        <pt x="301" y="369" on="1"/>
        <pt x="301" y="287" on="1"/>
      </contour>
    </TTGlyph>
    <TTGlyph name="ring" xMin="84" yMin="520" xMax="274" yMax="729">
      <contour>
        <pt x="84" y="520" on="1"/>
        <pt x="84" y="729" on="1"/>
        <pt x="274" y="729" on="1"/>
        <pt x="274" y="520" on="1"/>
      </contour>
      <contour>
        <pt x="219" y="685" on="1"/>
        <pt x="142" y="684" on="1"/>
        <pt x="142" y="563" on="1"/>
        <pt x="219" y="563" on="1"/>
      </contour>
    </TTGlyph>
    <TTGlyph name="s" xMin="82" yMin="0" xMax="399" yMax="451">
      <contour>
        <pt x="158" y="75" on="1"/>
        <pt x="158" y="113" on="1"/>
        <pt x="82" y="113" on="1"/>
        <pt x="82" y="0" on="1"/>
        <pt x="397" y="1" on="1"/>
        <pt x="397" y="232" on="1"/>
        <pt x="162" y="287" on="1"/>
        <pt x="162" y="376" on="1"/>
        <pt x="324" y="376" on="1"/>
        <pt x="324" y="287" on="1"/>
        <pt x="399" y="287" on="1"/>
        <pt x="399" y="451" on="1"/>
        <pt x="82" y="451" on="1"/>
        <pt x="82" y="215" on="1"/>
        <pt x="319" y="160" on="1"/>
        <pt x="319" y="75" on="1"/>
      </contour>
    </TTGlyph>
    <TTGlyph name="scaron" xMin="82" yMin="0" xMax="399" yMax="680">
      <contour>
        <pt x="158" y="75" on="1"/>
        <pt x="158" y="113" on="1"/>
        <pt x="82" y="113" on="1"/>
        <pt x="82" y="0" on="1"/>
        <pt x="397" y="1" on="1"/>
        <pt x="397" y="232" on="1"/>
        <pt x="162" y="287" on="1"/>
        <pt x="162" y="376" on="1"/>
        <pt x="324" y="376" on="1"/>
        <pt x="324" y="287" on="1"/>
        <pt x="399" y="287" on="1"/>
        <pt x="399" y="451" on="1"/>
        <pt x="82" y="451" on="1"/>
        <pt x="82" y="215" on="1"/>
        <pt x="319" y="160" on="1"/>
        <pt x="319" y="75" on="1"/>
      </contour>
      <contour>
        <pt x="225" y="487" on="1"/>
        <pt x="86" y="627" on="1"/>
        <pt x="141" y="680" on="1"/>
        <pt x="225" y="588" on="1"/>
        <pt x="309" y="680" on="1"/>
        <pt x="365" y="627" on="1"/>
      </contour>
    </TTGlyph>
    <TTGlyph name="section" xMin="82" yMin="-13" xMax="292" yMax="454">
      <contour>
        <pt x="239" y="258" on="1"/>
        <pt x="186" y="271" on="1"/>
        <pt x="134" y="247" on="1"/>
        <pt x="134" y="182" on="1"/>
        <pt x="179" y="171" on="1"/>
        <pt x="239" y="194" on="1"/>
      </contour>
      <contour>
        <pt x="290" y="179" on="1"/>
        <pt x="221" y="157" on="1"/>
        <pt x="290" y="140" on="1"/>
        <pt x="290" y="-12" on="1"/>
        <pt x="82" y="-13" on="1"/>
        <pt x="82" y="61" on="1"/>
        <pt x="132" y="61" on="1"/>
        <pt x="132" y="36" on="1"/>
        <pt x="239" y="36" on="1"/>
        <pt x="239" y="92" on="1"/>
        <pt x="82" y="129" on="1"/>
        <pt x="82" y="262" on="1"/>
        <pt x="140" y="285" on="1"/>
        <pt x="82" y="298" on="1"/>
        <pt x="82" y="454" on="1"/>
        <pt x="292" y="454" on="1"/>
        <pt x="292" y="345" on="1"/>
        <pt x="242" y="345" on="1"/>
        <pt x="242" y="404" on="1"/>
        <pt x="134" y="404" on="1"/>
        <pt x="134" y="345" on="1"/>
        <pt x="290" y="309" on="1"/>
      </contour>
    </TTGlyph>
    <TTGlyph name="semicolon" xMin="51" yMin="-82" xMax="178" yMax="451">
      <contour>
        <pt x="82" y="451" on="1"/>
        <pt x="82" y="328" on="1"/>
        <pt x="158" y="328" on="1"/>
        <pt x="158" y="451" on="1"/>
      </contour>
      <contour>
        <pt x="51" y="-82" on="1"/>
        <pt x="102" y="123" on="1"/>
        <pt x="178" y="123" on="1"/>
        <pt x="127" y="-82" on="1"/>
      </contour>
    </TTGlyph>
    <TTGlyph name="seven" xMin="98" yMin="0" xMax="414" yMax="450">
      <contour>
        <pt x="414" y="372" on="1"/>
        <pt x="414" y="450" on="1"/>
        <pt x="98" y="450" on="1"/>
        <pt x="98" y="372" on="1"/>
        <pt x="326" y="372" on="1"/>
        <pt x="150" y="1" on="1"/>
        <pt x="260" y="0" on="1"/>
      </contour>
    </TTGlyph>
    <TTGlyph name="six" xMin="97" yMin="0" xMax="415" yMax="450">
      <contour>
        <pt x="97" y="450" on="1"/>
        <pt x="415" y="450" on="1"/>
        <pt x="415" y="373" on="1"/>
        <pt x="173" y="372" on="1"/>
        <pt x="173" y="276" on="1"/>
        <pt x="415" y="276" on="1"/>
        <pt x="415" y="0" on="1"/>
        <pt x="97" y="0" on="1"/>
      </contour>
      <contour>
        <pt x="334" y="196" on="1"/>
        <pt x="173" y="196" on="1"/>
        <pt x="173" y="75" on="1"/>
        <pt x="334" y="75" on="1"/>
      </contour>
    </TTGlyph>
    <TTGlyph name="slash" xMin="-3" yMin="-153" xMax="243" yMax="675">
      <contour>
        <pt x="169" y="675" on="1"/>
        <pt x="-3" y="-136" on="1"/>
        <pt x="71" y="-153" on="1"/>
        <pt x="243" y="658" on="1"/>
      </contour>
    </TTGlyph>
    <TTGlyph name="sterling" xMin="82" yMin="0" xMax="404" yMax="451">
      <contour>
        <pt x="82" y="71" on="1"/>
        <pt x="180" y="71" on="1"/>
        <pt x="180" y="205" on="1"/>
        <pt x="82" y="205" on="1"/>
        <pt x="82" y="275" on="1"/>
        <pt x="180" y="275" on="1"/>
        <pt x="180" y="451" on="1"/>
        <pt x="399" y="451" on="1"/>
        <pt x="399" y="380" on="1"/>
        <pt x="256" y="380" on="1"/>
        <pt x="256" y="275" on="1"/>
        <pt x="399" y="275" on="1"/>
        <pt x="399" y="205" on="1"/>
        <pt x="256" y="205" on="1"/>
        <pt x="256" y="71" on="1"/>
        <pt x="404" y="71" on="1"/>
        <pt x="404" y="0" on="1"/>
        <pt x="82" y="0" on="1"/>
      </contour>
    </TTGlyph>
    <TTGlyph name="t" xMin="82" yMin="0" xMax="358" yMax="584">
      <contour>
        <pt x="358" y="0" on="1"/>
        <pt x="174" y="0" on="1"/>
        <pt x="174" y="379" on="1"/>
        <pt x="82" y="379" on="1"/>
        <pt x="82" y="451" on="1"/>
        <pt x="174" y="451" on="1"/>
        <pt x="174" y="584" on="1"/>
        <pt x="250" y="584" on="1"/>
        <pt x="250" y="451" on="1"/>
        <pt x="358" y="451" on="1"/>
        <pt x="358" y="379" on="1"/>
        <pt x="250" y="379" on="1"/>
        <pt x="250" y="72" on="1"/>
        <pt x="358" y="72" on="1"/>
      </contour>
    </TTGlyph>
    <TTGlyph name="three" xMin="97" yMin="0" xMax="415" yMax="451">
      <contour>
        <pt x="334" y="196" on="1"/>
        <pt x="334" y="75" on="1"/>
        <pt x="173" y="75" on="1"/>
        <pt x="173" y="133" on="1"/>
        <pt x="97" y="133" on="1"/>
        <pt x="97" y="0" on="1"/>
        <pt x="415" y="0" on="1"/>
        <pt x="415" y="256" on="1"/>
        <pt x="299" y="256" on="1"/>
        <pt x="413" y="372" on="1"/>
        <pt x="413" y="450" on="1"/>
        <pt x="97" y="451" on="1"/>
        <pt x="97" y="376" on="1"/>
        <pt x="294" y="376" on="1"/>
        <pt x="179" y="256" on="1"/>
        <pt x="179" y="196" on="1"/>
      </contour>
    </TTGlyph>
    <TTGlyph name="trademark" xMin="29" yMin="313" xMax="657" yMax="664">
      <contour>
        <pt x="516" y="313" on="1"/>
        <pt x="436" y="313" on="1"/>
        <pt x="436" y="510" on="1"/>
        <pt x="371" y="510" on="1"/>
        <pt x="371" y="313" on="1"/>
        <pt x="295" y="313" on="1"/>
        <pt x="295" y="584" on="1"/>
        <pt x="657" y="584" on="1"/>
        <pt x="657" y="313" on="1"/>
        <pt x="579" y="313" on="1"/>
        <pt x="579" y="510" on="1"/>
        <pt x="516" y="510" on="1"/>
      </contour>
      <contour>
        <pt x="219" y="313" on="1"/>
        <pt x="84" y="313" on="1"/>
        <pt x="84" y="510" on="1"/>
        <pt x="29" y="510" on="1"/>
        <pt x="29" y="584" on="1"/>
        <pt x="84" y="584" on="1"/>
        <pt x="84" y="664" on="1"/>
        <pt x="160" y="664" on="1"/>
        <pt x="160" y="584" on="1"/>
        <pt x="219" y="584" on="1"/>
        <pt x="219" y="510" on="1"/>
        <pt x="160" y="510" on="1"/>
        <pt x="160" y="387" on="1"/>
        <pt x="219" y="387" on="1"/>
      </contour>
    </TTGlyph>
    <TTGlyph name="two" xMin="97" yMin="0" xMax="415" yMax="451">
      <contour>
        <pt x="415" y="75" on="1"/>
        <pt x="415" y="0" on="1"/>
        <pt x="99" y="1" on="1"/>
        <pt x="99" y="79" on="1"/>
        <pt x="335" y="276" on="1"/>
        <pt x="335" y="376" on="1"/>
        <pt x="173" y="376" on="1"/>
        <pt x="173" y="287" on="1"/>
        <pt x="97" y="287" on="1"/>
        <pt x="97" y="451" on="1"/>
        <pt x="415" y="451" on="1"/>
        <pt x="415" y="225" on="1"/>
        <pt x="218" y="75" on="1"/>
      </contour>
    </TTGlyph>
    <TTGlyph name="u" xMin="82" yMin="0" xMax="399" yMax="451">
      <contour>
        <pt x="399" y="451" on="1"/>
        <pt x="399" y="0" on="1"/>
        <pt x="82" y="0" on="1"/>
        <pt x="82" y="451" on="1"/>
        <pt x="158" y="451" on="1"/>
        <pt x="158" y="72" on="1"/>
        <pt x="319" y="72" on="1"/>
        <pt x="319" y="451" on="1"/>
      </contour>
    </TTGlyph>
    <TTGlyph name="uacute" xMin="82" yMin="0" xMax="399" yMax="676">
      <contour>
        <pt x="399" y="451" on="1"/>
        <pt x="399" y="0" on="1"/>
        <pt x="82" y="0" on="1"/>
        <pt x="82" y="451" on="1"/>
        <pt x="158" y="451" on="1"/>
        <pt x="158" y="72" on="1"/>
        <pt x="319" y="72" on="1"/>
        <pt x="319" y="451" on="1"/>
      </contour>
      <contour>
        <pt x="287" y="676" on="1"/>
        <pt x="82" y="543" on="1"/>
        <pt x="137" y="481" on="1"/>
        <pt x="342" y="614" on="1"/>
      </contour>
    </TTGlyph>
    <TTGlyph name="ucircumflex" xMin="82" yMin="0" xMax="399" yMax="680">
      <contour>
        <pt x="399" y="451" on="1"/>
        <pt x="399" y="0" on="1"/>
        <pt x="82" y="0" on="1"/>
        <pt x="82" y="451" on="1"/>
        <pt x="158" y="451" on="1"/>
        <pt x="158" y="72" on="1"/>
        <pt x="319" y="72" on="1"/>
        <pt x="319" y="451" on="1"/>
      </contour>
      <contour>
        <pt x="225" y="680" on="1"/>
        <pt x="365" y="541" on="1"/>
        <pt x="309" y="487" on="1"/>
        <pt x="225" y="580" on="1"/>
        <pt x="141" y="487" on="1"/>
        <pt x="86" y="541" on="1"/>
      </contour>
    </TTGlyph>
    <TTGlyph name="udieresis" xMin="82" yMin="0" xMax="399" yMax="676">
      <contour>
        <pt x="399" y="451" on="1"/>
        <pt x="399" y="0" on="1"/>
        <pt x="82" y="0" on="1"/>
        <pt x="82" y="451" on="1"/>
        <pt x="158" y="451" on="1"/>
        <pt x="158" y="72" on="1"/>
        <pt x="319" y="72" on="1"/>
        <pt x="319" y="451" on="1"/>
      </contour>
      <contour>
        <pt x="82" y="676" on="1"/>
        <pt x="82" y="543" on="1"/>
        <pt x="158" y="543" on="1"/>
        <pt x="158" y="676" on="1"/>
      </contour>
      <contour>
        <pt x="266" y="676" on="1"/>
        <pt x="266" y="543" on="1"/>
        <pt x="342" y="543" on="1"/>
        <pt x="342" y="676" on="1"/>
      </contour>
    </TTGlyph>
    <TTGlyph name="ugrave" xMin="82" yMin="0" xMax="399" yMax="676">
      <contour>
        <pt x="399" y="451" on="1"/>
        <pt x="399" y="0" on="1"/>
        <pt x="82" y="0" on="1"/>
        <pt x="82" y="451" on="1"/>
        <pt x="158" y="451" on="1"/>
        <pt x="158" y="72" on="1"/>
        <pt x="319" y="72" on="1"/>
        <pt x="319" y="451" on="1"/>
      </contour>
      <contour>
        <pt x="137" y="676" on="1"/>
        <pt x="342" y="543" on="1"/>
        <pt x="287" y="481" on="1"/>
        <pt x="82" y="614" on="1"/>
      </contour>
    </TTGlyph>
    <TTGlyph name="underscore" xMin="26" yMin="-113" xMax="466" yMax="-41">
      <contour>
        <pt x="466" y="-113" on="1"/>
        <pt x="466" y="-41" on="1"/>
        <pt x="26" y="-41" on="1"/>
        <pt x="26" y="-113" on="1"/>
      </contour>
    </TTGlyph>
    <TTGlyph name="v" xMin="31" yMin="0" xMax="420" yMax="451">
      <contour>
        <pt x="420" y="451" on="1"/>
        <pt x="297" y="0" on="1"/>
        <pt x="154" y="0" on="1"/>
        <pt x="31" y="451" on="1"/>
        <pt x="133" y="451" on="1"/>
        <pt x="215" y="72" on="1"/>
        <pt x="244" y="72" on="1"/>
        <pt x="326" y="451" on="1"/>
      </contour>
    </TTGlyph>
    <TTGlyph name="w" xMin="82" yMin="0" xMax="635" yMax="451">
      <contour>
        <pt x="317" y="451" on="1"/>
        <pt x="399" y="451" on="1"/>
        <pt x="399" y="72" on="1"/>
        <pt x="559" y="72" on="1"/>
        <pt x="559" y="451" on="1"/>
        <pt x="635" y="451" on="1"/>
        <pt x="635" y="0" on="1"/>
        <pt x="82" y="0" on="1"/>
        <pt x="82" y="451" on="1"/>
        <pt x="162" y="451" on="1"/>
        <pt x="162" y="72" on="1"/>
        <pt x="317" y="72" on="1"/>
      </contour>
    </TTGlyph>
    <TTGlyph name="x" xMin="31" yMin="0" xMax="451" yMax="451">
      <contour>
        <pt x="451" y="0" on="1"/>
        <pt x="350" y="0" on="1"/>
        <pt x="248" y="184" on="1"/>
        <pt x="229" y="184" on="1"/>
        <pt x="127" y="0" on="1"/>
        <pt x="31" y="0" on="1"/>
        <pt x="160" y="236" on="1"/>
        <pt x="41" y="451" on="1"/>
        <pt x="137" y="451" on="1"/>
        <pt x="229" y="266" on="1"/>
        <pt x="248" y="266" on="1"/>
        <pt x="340" y="451" on="1"/>
        <pt x="440" y="451" on="1"/>
        <pt x="322" y="236" on="1"/>
      </contour>
    </TTGlyph>
    <TTGlyph name="y" xMin="82" yMin="-184" xMax="399" yMax="451">
      <contour>
        <pt x="399" y="451" on="1"/>
        <pt x="399" y="-184" on="1"/>
        <pt x="82" y="-184" on="1"/>
        <pt x="82" y="-113" on="1"/>
        <pt x="319" y="-113" on="1"/>
        <pt x="319" y="0" on="1"/>
        <pt x="84" y="0" on="1"/>
        <pt x="84" y="451" on="1"/>
        <pt x="158" y="451" on="1"/>
        <pt x="158" y="74" on="1"/>
        <pt x="319" y="74" on="1"/>
        <pt x="319" y="451" on="1"/>
      </contour>
    </TTGlyph>
    <TTGlyph name="yacute" xMin="82" yMin="-184" xMax="399" yMax="696">
      <contour>
        <pt x="399" y="451" on="1"/>
        <pt x="399" y="-184" on="1"/>
        <pt x="82" y="-184" on="1"/>
        <pt x="82" y="-113" on="1"/>
        <pt x="319" y="-113" on="1"/>
        <pt x="319" y="0" on="1"/>
        <pt x="84" y="0" on="1"/>
        <pt x="84" y="451" on="1"/>
        <pt x="158" y="451" on="1"/>
        <pt x="158" y="74" on="1"/>
        <pt x="319" y="74" on="1"/>
        <pt x="319" y="451" on="1"/>
      </contour>
      <contour>
        <pt x="287" y="696" on="1"/>
        <pt x="82" y="563" on="1"/>
        <pt x="137" y="502" on="1"/>
        <pt x="342" y="635" on="1"/>
      </contour>
    </TTGlyph>
    <TTGlyph name="ydieresis" xMin="82" yMin="-184" xMax="399" yMax="676">
      <contour>
        <pt x="399" y="451" on="1"/>
        <pt x="399" y="-184" on="1"/>
        <pt x="82" y="-184" on="1"/>
        <pt x="82" y="-113" on="1"/>
        <pt x="319" y="-113" on="1"/>
        <pt x="319" y="0" on="1"/>
        <pt x="84" y="0" on="1"/>
        <pt x="84" y="451" on="1"/>
        <pt x="158" y="451" on="1"/>
        <pt x="158" y="74" on="1"/>
        <pt x="319" y="74" on="1"/>
        <pt x="319" y="451" on="1"/>
      </contour>
      <contour>
        <pt x="82" y="676" on="1"/>
        <pt x="82" y="543" on="1"/>
        <pt x="158" y="543" on="1"/>
        <pt x="158" y="676" on="1"/>
      </contour>
      <contour>
        <pt x="266" y="676" on="1"/>
        <pt x="266" y="543" on="1"/>
        <pt x="342" y="543" on="1"/>
        <pt x="342" y="676" on="1"/>
      </contour>
    </TTGlyph>
    <TTGlyph name="yen" xMin="36" yMin="0" xMax="476" yMax="573">
      <contour>
        <pt x="476" y="123" on="1"/>
        <pt x="410" y="123" on="1"/>
        <pt x="410" y="0" on="1"/>
        <pt x="92" y="0" on="1"/>
        <pt x="92" y="72" on="1"/>
        <pt x="330" y="72" on="1"/>
        <pt x="330" y="123" on="1"/>
        <pt x="36" y="123" on="1"/>
        <pt x="36" y="195" on="1"/>
        <pt x="330" y="195" on="1"/>
        <pt x="330" y="246" on="1"/>
        <pt x="36" y="246" on="1"/>
        <pt x="36" y="317" on="1"/>
        <pt x="330" y="317" on="1"/>
        <pt x="330" y="389" on="1"/>
        <pt x="94" y="389" on="1"/>
        <pt x="94" y="573" on="1"/>
        <pt x="168" y="573" on="1"/>
        <pt x="168" y="463" on="1"/>
        <pt x="330" y="463" on="1"/>
        <pt x="330" y="573" on="1"/>
        <pt x="410" y="573" on="1"/>
        <pt x="410" y="317" on="1"/>
        <pt x="476" y="317" on="1"/>
        <pt x="476" y="246" on="1"/>
        <pt x="410" y="246" on="1"/>
        <pt x="410" y="195" on="1"/>
        <pt x="476" y="195" on="1"/>
      </contour>
    </TTGlyph>
    <TTGlyph name="z" xMin="82" yMin="0" xMax="399" yMax="451">
      <contour>
        <pt x="182" y="72" on="1"/>
        <pt x="391" y="72" on="1"/>
        <pt x="391" y="0" on="1"/>
        <pt x="82" y="0" on="1"/>
        <pt x="82" y="72" on="1"/>
        <pt x="319" y="376" on="1"/>
        <pt x="82" y="376" on="1"/>
        <pt x="82" y="451" on="1"/>
        <pt x="399" y="451" on="1"/>
        <pt x="399" y="373" on="1"/>
      </contour>
    </TTGlyph>
    <TTGlyph name="zcaron" xMin="82" yMin="0" xMax="399" yMax="680">
      <contour>
        <pt x="182" y="72" on="1"/>
        <pt x="391" y="72" on="1"/>
        <pt x="391" y="0" on="1"/>
        <pt x="82" y="0" on="1"/>
        <pt x="82" y="72" on="1"/>
        <pt x="319" y="376" on="1"/>
        <pt x="82" y="376" on="1"/>
        <pt x="82" y="451" on="1"/>
        <pt x="399" y="451" on="1"/>
        <pt x="399" y="373" on="1"/>
      </contour>
      <contour>
        <pt x="225" y="487" on="1"/>
        <pt x="86" y="627" on="1"/>
        <pt x="141" y="680" on="1"/>
        <pt x="225" y="588" on="1"/>
        <pt x="309" y="680" on="1"/>
        <pt x="365" y="627" on="1"/>
      </contour>
    </TTGlyph>
    <TTGlyph name="zero" xMin="97" yMin="0" xMax="415" yMax="451">
      <contour>
        <pt x="97" y="0" on="1"/>
        <pt x="97" y="451" on="1"/>
        <pt x="415" y="451" on="1"/>
        <pt x="415" y="0" on="1"/>
      </contour>
      <contour>
        <pt x="339" y="377" on="1"/>
        <pt x="177" y="376" on="1"/>
        <pt x="177" y="72" on="1"/>
        <pt x="339" y="72" on="1"/>
      </contour>
    </TTGlyph>
</ttFont>
